<svg width="64" height="64" fill="none" xmlns="http://www.w3.org/2000/svg"><path d="M62 35.875a1 1 0 00-.304-.718l-4-3.875A1 1 0 0057 31h-6.586L50 30.586V9a1 1 0 00-1-1h-8.172A3.005 3.005 0 0038 6h-1.1A5.009 5.009 0 0032 2a5.009 5.009 0 00-4.9 4H26a3.005 3.005 0 00-2.828 2H15a1 1 0 00-1 1v24H7a1 1 0 00-.707.293l-4 4A1 1 0 002 38v23a1 1 0 001 1h58a1 1 0 001-1V35.875zm-2 .424v4.287l-4-4V33h.595L60 36.299zM60 54h-4v-5a1 1 0 00-.293-.707l-5.5-5.5a1.115 1.115 0 010-1.586c.212-.212.493-.328.793-.328.3 0 .581.116.793.328l2.5 2.5 3 3a.998.998 0 001.414 0L60 45.414V54zm-10 0v-8.586l4 4V54h-4zm9.586-11L58 44.586l-2.293-2.293-2.5-2.5L43 29.586V28h1.586l15 15zM54 33v1.586L52.414 33H54zM26 8h2a1 1 0 001-1c0-1.654 1.346-3 3-3s3 1.346 3 3a1 1 0 001 1h2c.551 0 1 .449 1 1v1H25V9c0-.551.449-1 1-1zM14 39.044a3.125 3.125 0 00-3.207.749l-.793.793V35h4v4.044zm-10-.63L7.414 35H8v8a1 1 0 001.707.707l2.5-2.5a1.122 1.122 0 011.586 1.586l-5.5 5.5A1 1 0 008 49v5H4V38.414zm6 11l4-4V54h-4v-4.586zM4 56h10v4H4v-4zm12-46h7v1a1 1 0 001 1h16a1 1 0 001-1v-1h7v18.586l-2.293-2.293A1 1 0 0045 26h-3a1 1 0 00-1 1v3a1 1 0 00.293.707L48 37.414V60H16V10zm44 50H50v-4h10v4z" fill="#D15B8F"/><path d="M20 20.414V23a1 1 0 001 1h6a1 1 0 001-1v-2.586l.293.293 1.414-1.414-2-2-3-3a1 1 0 00-1.414 0l-3 3-2 2 1.414 1.414.293-.293zm6-2V22h-4v-3.586l2-2 2 2zM24 41c2.206 0 4-1.794 4-4a3.985 3.985 0 00-1.047-2.696A1 1 0 0027 34v-4a1 1 0 00-1-1h-1v-2h-2v2h-1a1 1 0 00-1 1v4a1 1 0 00.047.304A3.985 3.985 0 0020 37c0 2.206 1.794 4 4 4zm0-2c-1.103 0-2-.897-2-2s.897-2 2-2 2 .897 2 2-.897 2-2 2zm-1-8h2v2h-2v-2zm5 16h-3v-2h1v-2h-4v2h1v2h-4a1 1 0 00-1 1v4a1 1 0 001 1h5v2a1 1 0 001 1h4a1 1 0 001-1v-6c0-1.103-.897-2-2-2zm0 7h-2v-2a1 1 0 00-1-1h-5v-2h8v5zm5-32h12v2H33v-2zm0 15h12v2H33v-2zm0 15h12v2H33v-2zM31 6h2v2h-2V6z" fill="#D15B8F"/></svg>