<svg width="48" height="48" fill="none" xmlns="http://www.w3.org/2000/svg"><g clip-path="url(#clip0)" fill="#fff"><path d="M36.499 42.002h-31A5.504 5.504 0 010 36.502V5.503c0-3.034 2.466-5.5 5.5-5.5h24.999a1.5 1.5 0 010 3h-25a2.504 2.504 0 00-2.5 2.5v30.999c0 1.378 1.123 2.5 2.501 2.5h30.999c1.378 0 2.5-1.122 2.5-2.5v-17a1.5 1.5 0 013 0v17c0 3.034-2.466 5.5-5.5 5.5z"/><path d="M24.5 25a1.48 1.48 0 01-1.06-.44l-9-9a1.5 1.5 0 112.121-2.12l7.94 7.939L45.438.442a1.5 1.5 0 112.122 2.121l-21.999 22A1.503 1.503 0 0124.5 25z"/></g><defs><clipPath id="clip0"><path fill="#fff" d="M0 0h48v48H0z"/></clipPath></defs></svg>