<svg width="64" height="64" fill="none" xmlns="http://www.w3.org/2000/svg"><path d="M32 47c-.551 0-1-.449-1-1h-2c0 1.654 1.346 3 3 3s3-1.346 3-3h-2c0 .551-.449 1-1 1zm-6.9-7h-.2a.9.9 0 00-.9.9v.2a.9.9 0 00.9.9h.2a.9.9 0 00.9-.9v-.2a.9.9 0 00-.9-.9zM39 40a1 1 0 100 2 1 1 0 000-2zM28.445 7.832l2.365 1.576-.759 2.276a1 1 0 001.396 1.21l6-3a1 1 0 00.108-1.726l-2.414-1.61.83-3.315a1 1 0 00-1.526-1.075l-6 4a1 1 0 000 1.664zm4.958-2.565l-.373 1.49a1 1 0 00.415 1.075l1.566 1.044-2.299 1.15.237-.71a1 1 0 00-.394-1.148L30.803 7l2.6-1.733z" fill="#D15B8F"/><path d="M56 13.873a4 4 0 001.782-6.747c.194-.48.263-1.01.19-1.546A3.011 3.011 0 0055.061 3a2.982 2.982 0 00-1.534.388A3 3 0 0051 2a3 3 0 00-2.528 1.388A2.982 2.982 0 0046.94 3a3.011 3.011 0 00-2.91 2.58 3.017 3.017 0 00.19 1.545A4 4 0 0046 13.873V15h-2v2h2.387a2.31 2.31 0 00.201 2.185L48 21.303V23a1 1 0 001 1h1v3.172A3.014 3.014 0 0048.172 29h-5.344a3.004 3.004 0 00-3.132-1.985 3.01 3.01 0 00-2.68 2.681A3.004 3.004 0 0039 32.828V35h-6v-2.172A3.005 3.005 0 0035 30a3.005 3.005 0 00-2-2.828V24h1a1 1 0 001-1v-1.697l1.412-2.118a2.31 2.31 0 00.2-2.185H39v-2H25v2h1.407a2.296 2.296 0 00.548 2.37L29 21.413V23a1 1 0 001 1h1v3.172A3.005 3.005 0 0029 30c0 1.304.836 2.415 2 2.828V35h-6v-2.172a3.004 3.004 0 001.985-3.132 3.01 3.01 0 00-2.681-2.68A3.004 3.004 0 0021.172 29h-5.344A3.014 3.014 0 0014 27.172V24h1a1 1 0 001-1v-1.697l1.412-2.118a2.31 2.31 0 00.2-2.185H20v-2h-3v-2a1 1 0 00-.293-.707l-3-3a1 1 0 00-1.414 0l-3 3A1 1 0 009 13v2H7V7.869l.613.408a1 1 0 001.11-1.664L7 5.465V4a1 1 0 10-2 0v1.465L3.277 6.613a1 1 0 001.11 1.664L5 7.87V16a1 1 0 001 1h1.407a2.296 2.296 0 00.548 2.37L10 21.413V23a1 1 0 001 1h1v3.172a3.004 3.004 0 00-1.985 3.132 3.01 3.01 0 002.681 2.68A3.004 3.004 0 0015.828 31h5.344c.302.85.977 1.526 1.828 1.828V35h-4a1 1 0 00-1 1v2h-.99A3.007 3.007 0 0014 40.999a5.008 5.008 0 004.061 4.911 6.986 6.986 0 002.119 4.159A5.007 5.007 0 0016 55v6a1 1 0 001 1h30a1 1 0 001-1v-6a5.007 5.007 0 00-4.18-4.931 6.986 6.986 0 002.119-4.159A5.007 5.007 0 0050 41a3.007 3.007 0 00-3.01-3H46v-2a1 1 0 00-1-1h-4v-2.172A3.014 3.014 0 0042.828 31h5.344a3.004 3.004 0 003.132 1.985 3.01 3.01 0 002.68-2.681A3.004 3.004 0 0052 27.172V24h1a1 1 0 001-1v-1.586l2.045-2.045c.627-.627.83-1.547.548-2.369H59v-2h-3v-1.127zm-27.63 4.082a.299.299 0 01.345-.48l2.838 1.42a1 1 0 001.002-.063l1.77-1.18a.3.3 0 01.247-.04.306.306 0 01.176.464l-1.58 2.37A1 1 0 0033 21v1h-2v-1a1 1 0 00-.293-.707l-2.338-2.338zM32 29a1.001 1.001 0 010 2 1.001 1.001 0 010-2zM11 13.414l2-2 2 2V15h-1v-1h-2v1h-1v-1.586zm-1.63 4.541a.299.299 0 01.345-.48l2.838 1.42a1 1 0 001.002-.063l1.77-1.18a.3.3 0 01.247-.04.306.306 0 01.176.464l-1.58 2.37A1 1 0 0014 21v1h-2v-1a1 1 0 00-.293-.707L9.37 17.955zM24 29a1.001 1.001 0 010 2 1.001 1.001 0 010-2zm-11 2a1.001 1.001 0 010-2 1.001 1.001 0 010 2zm30 10c0 2.206-1.794 4-4 4s-4-1.794-4-4 1.794-4 4-4 4 1.794 4 4zm-12-.875a1.001 1.001 0 012 0v2a1.001 1.001 0 01-2 0v-2zm1-3a2.98 2.98 0 00-1.916.694 6.034 6.034 0 00-.617-.819h5.066a6.034 6.034 0 00-.617.819A2.986 2.986 0 0032 37.125zM25 37c2.206 0 4 1.794 4 4s-1.794 4-4 4-4-1.794-4-4 1.794-4 4-4zm-4.467 0a6.03 6.03 0 00-.533.688V37h.533zM16 41c0-.551.449-1 1-1h1v3.828A3.005 3.005 0 0116 41zm27 11a3 3 0 013 3v5h-4v-3a1 1 0 10-2 0v3H24v-3a1 1 0 10-2 0v3h-4v-5a3 3 0 013-3h5.1c.465 2.28 2.485 4 4.9 4h2a5.009 5.009 0 004.9-4H43zm-14.828 0h7.656A3.005 3.005 0 0133 54h-2a3.005 3.005 0 01-2.828-2zM39 50H25c-2.757 0-5-2.243-5-5v-.688A5.999 5.999 0 0025 47a5.999 5.999 0 004.98-2.658 2.988 2.988 0 002.02.783c.777 0 1.486-.297 2.02-.783A5.999 5.999 0 0039 47a5.999 5.999 0 005-2.688V45c0 2.757-2.243 5-5 5zm8-10c.551 0 1 .449 1 1a3.005 3.005 0 01-2 2.828V40h1zm-3-2.312a6.02 6.02 0 00-.533-.688H44v.688zM40 31a1.001 1.001 0 010-2 1.001 1.001 0 010 2zm11 0a1.001 1.001 0 010-2 1.001 1.001 0 010 2zm3.63-13.045l-2.337 2.338A1 1 0 0052 21v1h-2v-1a1 1 0 00-.168-.555l-1.58-2.37a.306.306 0 01.176-.464.3.3 0 01.248.041l1.77 1.18a1 1 0 001.001.062l2.838-1.418a.293.293 0 01.229-.017.3.3 0 01.117.496zM52 15v-2.127a3.93 3.93 0 00.17-.048 3.97 3.97 0 001.83 1.05V15h-2zm3-10a1.001 1.001 0 01.725 1.69 1 1 0 00.244 1.561 1.998 1.998 0 11-2.021 3.45 3.984 3.984 0 00.545-4.649 1 1 0 00-.219-.363 1.14 1.14 0 01-.057-.065l-.036-.049A1 1 0 0155 5zm-4-1a1.001 1.001 0 01.726 1.69 1 1 0 00.243 1.561A1.998 1.998 0 0151 11a1.998 1.998 0 01-.969-3.749 1 1 0 00.243-1.561A1 1 0 0151 4zm-6 6a2 2 0 011.031-1.749 1 1 0 00.244-1.561 1.001 1.001 0 111.544-.115l-.036.05a1.179 1.179 0 01-.057.064.998.998 0 00-.219.363 3.994 3.994 0 00.545 4.649A2.002 2.002 0 0145 10zm3 3.874a3.966 3.966 0 001.83-1.05c.056.018.113.035.17.05V15h-2v-1.126z" fill="#D15B8F"/></svg>