<svg width="64" height="64" fill="none" xmlns="http://www.w3.org/2000/svg"><path d="M62 43v-7.125a1 1 0 00-.304-.718l-4-3.875A1 1 0 0057 31h-1V21a1 1 0 00-1-1H9a1 1 0 00-1 1v12H7a1 1 0 00-.707.293l-4 4A1 1 0 002 38v23a1 1 0 001 1h12a1 1 0 001-1V50h32v11a1 1 0 001 1h12a1 1 0 001-1V43zm-2-6.702v4.288L52.414 33h4.181L60 36.298zm-4.293 11.995l-5.5-5.5a1.114 1.114 0 01-.329-.793c0-.3.117-.58.329-.793.212-.212.493-.328.793-.328.3 0 .58.116.792.328l5.5 5.5a.997.997 0 001.415 0L60 45.414V54h-4v-5a1 1 0 00-.293-.707zM43 29.586V28h1.586l15 15L58 44.586l-15-15zM10 22h44v9h-3.586l-4.707-4.707A1 1 0 0045 26h-3a1 1 0 00-1 1v3a1 1 0 00.293.707l8.44 8.44A3.122 3.122 0 0047.878 42a3.1 3.1 0 00.915 2.207L52.586 48H11.414l3.793-3.793a3.125 3.125 0 000-4.414A3.101 3.101 0 0013 38.879c-.834 0-1.618.324-2.207.914l-.793.793V22zM4 38.414L7.414 35H8v8a1 1 0 001.707.707l2.5-2.5c.212-.212.493-.328.793-.328a1.122 1.122 0 01.793 1.914l-5.5 5.5A1 1 0 008 49v5H4V38.414zM4 60v-4h10v4H4zm10-6h-4v-4h4v4zm40-4v4h-4v-4h4zm-4 10v-4h10v4H50z" fill="#D15B8F"/><path d="M17 36h7v8h-6v2h27a1 1 0 001-1v-4h-2v3h-2v-7a1 1 0 00-.293-.707l-6-6a1 1 0 00-1.414 0l-6 6A1 1 0 0028 37v7h-2v-8.586l9-9 2.293 2.293 1.414-1.414-3-3A.998.998 0 0035 24h-9a1 1 0 00-.707.293l-10 10a.998.998 0 00-.29.707H15v3h2v-2zm13 1.414l5-5 5 5V44H30v-6.586zM26.414 26h6.172l-8 8h-6.172l8-8zM29 12.645V15c0 1.654 1.346 3 3 3s3-1.346 3-3v-2.355c.64-.726 1-1.667 1-2.645 0-2.206-1.794-4-4-4s-4 1.794-4 4c0 .978.36 1.918 1 2.645zM33 15a1.001 1.001 0 01-2 0v-1h2v1zm-1-7a2 2 0 011.334 3.49 1.001 1.001 0 00-.306.51h-2.056a1.001 1.001 0 00-.306-.51A2 2 0 0132 8zm0-3a1 1 0 001-1V2a1 1 0 00-2 0v2a1 1 0 001 1zm-4.95 1.464a.997.997 0 001.414 0 1 1 0 000-1.414L27.05 3.636a1 1 0 00-1.414 1.414l1.414 1.414zM24 11h2a1 1 0 000-2h-2a1 1 0 000 2zm12.243-4.243a.997.997 0 00.707-.293l1.414-1.414a1 1 0 10-1.414-1.414L35.535 5.05a1 1 0 00.708 1.707zM37 10a1 1 0 001 1h2a1 1 0 000-2h-2a1 1 0 00-1 1z" fill="#D15B8F"/></svg>