<svg width="64" height="64" fill="none" xmlns="http://www.w3.org/2000/svg"><path d="M59 2H5C3.346 2 2 3.346 2 5v42c0 1.654 1.346 3 3 3h20.913l-.833 10H24v2h16v-2h-1.08l-.833-10H59c1.654 0 3-1.346 3-3V5c0-1.654-1.346-3-3-3zM4 5c0-.551.449-1 1-1h54c.551 0 1 .449 1 1v37H4V5zm32.913 55h-9.826l.833-10h8.16l.833 10zM60 47c0 .551-.449 1-1 1H5c-.551 0-1-.449-1-1v-3h56v3z" fill="#D15B8F"/><path d="M32 58c1.654 0 3-1.346 3-3s-1.346-3-3-3-3 1.346-3 3 1.346 3 3 3zm0-4a1.001 1.001 0 010 2 1.001 1.001 0 010-2zm-6-21h-2v3H10V24h4v-2h-4V10h14v12h-4v2h4v3h2V10h12v4h2v-4h14v12H40v-1h-2v6h2v-3h14v1h2V9a1 1 0 00-1-1H9a1 1 0 00-1 1v28a1 1 0 001 1h33v-2H26v-3z" fill="#D15B8F"/><path d="M54.414 31l1.293-1.293A1 1 0 0055 28h-8a1 1 0 00-1 1v8a1 1 0 001.707.707L49 36.414l3.293 3.293a.997.997 0 001.414 0l4-4a1 1 0 000-1.414L54.414 31zM53 37.586l-3.293-3.293a.997.997 0 00-1.414 0l-.293.293V30h4.586l-.293.293a1 1 0 000 1.414L55.586 35 53 37.586z" fill="#D15B8F"/></svg>