<svg width="64" height="64" fill="none" xmlns="http://www.w3.org/2000/svg"><path d="M61.488 2.127a1 1 0 00-1.012.021L57 4.288V3a1 1 0 00-1-1H42a1 1 0 00-.707.293l-6 6A1 1 0 0035 9v1H16.283L3.524 2.148A1 1 0 002 3v44a1 1 0 001 1h19v5a1 1 0 00.293.707l8 8A1 1 0 0031 62h14a1 1 0 001-1v-8a1 1 0 00-1-1h-3.586l-4-4H61a1 1 0 001-1V3a1 1 0 00-.512-.873zM60 4.79V42H49V15.414L51.414 13H56a1 1 0 001-1V6.636l3-1.846zM37 9.414L42.414 4H55v7h-4a1 1 0 00-.707.293L46 15.586 44.414 14l2.293-2.293a1 1 0 000-1.414l-3-3a1 1 0 00-1.414 0l-3 3A1 1 0 0039 11v3h-2V9.414zM39 34h-4v-4h4v4zm-10 0h-2v-4h2v4zm-2-6h-6v-2h6v2zm-4 2h2v8h-2v-8zm18-18h2.586l-1.293 1.293A.998.998 0 0042 14h-1v-2zm1.414-2L43 9.414l.586.586h-1.172zM29 28v-2h14v2H29zm14-4h-2v-8h2v8zm-4-6h-4v-2h4v2zm0 2v4h-4v-4h4zm-6 4h-2v-8h2v8zm-2 6h2v8h-2v-8zm10 0h2v8h-2v-8zm-6-16h-5a1 1 0 00-1 1v9h-9a1 1 0 00-1 1v4a1 1 0 001 1h1v9a1 1 0 001 1h4a1 1 0 001-1v-3h2v3a1 1 0 001 1h4a1 1 0 001-1v-3h4v3a1 1 0 001 1h4a1 1 0 001-1V17.414l.293.293a.998.998 0 001.414 0l.293-.293V42H17V12h18v2zM4 4.79l11 6.769V42H4V4.79zM41 54h3v6H31.414L24 52.586V48h2v3a1 1 0 00.293.707l5 5a1 1 0 001.414 0l3-3a1 1 0 000-1.414L33.414 50 35 48.414l5.293 5.293A1 1 0 0041 54zm-9.707-3.293L33.586 53 32 54.586l-4-4V48h4.586l-1.293 1.293a1 1 0 000 1.414zM60 46H4v-2h56v2z" fill="#D15B8F"/></svg>