<svg width="24" height="24" fill="none" xmlns="http://www.w3.org/2000/svg"><path d="M23.789 4.768L16.509 12l7.28 7.232c.131-.275.211-.58.211-.904V5.672c0-.325-.08-.629-.211-.904zM21.89 3.562H2.11c-.325 0-.63.08-.904.212l9.303 9.256c.822.822 2.16.822 2.982 0l9.303-9.256a2.085 2.085 0 00-.903-.212zM.211 4.768A2.085 2.085 0 000 5.672v12.656c0 .325.08.629.211.904L7.491 12 .21 4.768z" fill="#D15B8F"/><path d="M15.516 12.994l-1.03 1.03a3.52 3.52 0 01-4.972 0l-1.03-1.03-7.278 7.232c.275.132.579.211.903.211h19.782c.324 0 .628-.08.903-.211l-7.278-7.232z" fill="#D15B8F"/></svg>