<svg width="24" height="24" fill="none" xmlns="http://www.w3.org/2000/svg"><g clip-path="url(#clip0)" fill="#fff"><path d="M18.246 15.877c-.784-.775-1.763-.775-2.542 0-.594.589-1.188 1.178-1.773 1.777-.16.165-.294.2-.489.09-.385-.21-.794-.38-1.164-.609-1.723-1.084-3.166-2.477-4.444-4.045-.635-.78-1.2-1.613-1.594-2.552-.08-.19-.065-.315.09-.47.595-.574 1.174-1.163 1.758-1.753.814-.819.814-1.778-.005-2.602-.464-.47-.929-.929-1.393-1.398-.48-.48-.954-.964-1.438-1.438-.785-.764-1.763-.764-2.542.005-.6.589-1.174 1.193-1.783 1.773-.565.534-.85 1.188-.91 1.952-.094 1.244.21 2.417.64 3.561.879 2.367 2.217 4.47 3.84 6.398 2.193 2.607 4.81 4.67 7.871 6.158 1.379.669 2.807 1.183 4.36 1.268 1.069.06 1.998-.21 2.742-1.044.51-.57 1.084-1.088 1.623-1.633.8-.809.804-1.788.01-2.587a768.03 768.03 0 00-2.857-2.852zm-.953-3.981l1.842-.315a8.237 8.237 0 00-2.302-4.444 8.192 8.192 0 00-4.694-2.343l-.26 1.853a6.356 6.356 0 013.636 1.813 6.355 6.355 0 011.777 3.436zm2.881-8.011A13.589 13.589 0 0012.384 0l-.26 1.853a11.783 11.783 0 016.732 3.356 11.773 11.773 0 013.3 6.367L24 11.262a13.688 13.688 0 00-3.826-7.377z"/></g><defs><clipPath id="clip0"><path fill="#fff" d="M0 0h24v24H0z"/></clipPath></defs></svg>