<svg width="48" height="48" fill="none" xmlns="http://www.w3.org/2000/svg"><g clip-path="url(#clip0)"><path opacity=".5" d="M20.667 3.662v8.01c0 1.086-.88 1.966-1.967 1.966-3.876 0-5.984 3.975-6.276 11.821H18.7c1.086 0 1.967.881 1.967 1.967v16.912c0 1.086-.88 1.966-1.967 1.966H1.966A1.966 1.966 0 010 44.338V27.426c0-3.761.379-7.212 1.125-10.26.766-3.124 1.941-5.855 3.492-8.119 1.596-2.326 3.593-4.151 5.935-5.423 2.358-1.28 5.1-1.928 8.149-1.928 1.085 0 1.966.88 1.966 1.966zm25.366 9.977A1.968 1.968 0 0048 11.671v-8.01a1.967 1.967 0 00-1.967-1.966c-3.048 0-5.79.649-8.147 1.928-2.343 1.272-4.34 3.097-5.937 5.423-1.55 2.264-2.726 4.996-3.491 8.12-.746 3.048-1.125 6.5-1.125 10.26v16.911c0 1.086.88 1.966 1.967 1.966h16.733a1.967 1.967 0 001.966-1.966V27.426c0-1.086-.88-1.967-1.966-1.967h-6.187c.288-7.845 2.365-11.82 6.187-11.82z" fill="#fff"/></g><defs><clipPath id="clip0"><path fill="#fff" d="M0 0h48v48H0z"/></clipPath></defs></svg>