<svg width="64" height="64" fill="none" xmlns="http://www.w3.org/2000/svg"><path d="M55.383 38.076a1 1 0 00-1.09.217l-16 16A1 1 0 0039 56h16a1 1 0 001-1V39a1 1 0 00-.617-.924zM54 54H41.414L54 41.414V54zM41.707 21.293l-9-9a1 1 0 00-1.414 0l-9 9A1 1 0 0022 22v11a1 1 0 001 1h18a1 1 0 001-1V22a1 1 0 00-.293-.707zM40 32H24v-9.586l8-8 8 8V32z" fill="#D15B8F"/><path d="M28 23v6a1 1 0 001 1h6a1 1 0 001-1v-6a1 1 0 00-1-1h-6a1 1 0 00-1 1zm2 1h4v4h-4v-4z" fill="#D15B8F"/><path d="M61 8H10V3a1 1 0 00-1-1H6C3.794 2 2 3.794 2 6v32a3.98 3.98 0 001.172 2.83A3.979 3.979 0 006 42h34.586L22.293 60.293A1 1 0 0023 62h38a1 1 0 001-1V9a1 1 0 00-1-1zM6 4h2v30H6a3.98 3.98 0 00-2 .538V6c0-1.103.897-2 2-2zM4.587 39.415A2.002 2.002 0 016 36h3a1 1 0 001-1V10h50v12.586L42.586 40H6a1.99 1.99 0 01-1.413-.585zM60 60H25.414L30 55.414l1.293 1.293a.997.997 0 001.414 0 1 1 0 000-1.414L31.414 54 33 52.414l.293.293a.997.997 0 001.414 0 1 1 0 000-1.414L34.414 51 36 49.414l1.293 1.293a.997.997 0 001.414 0 1 1 0 000-1.414L37.414 48 39 46.414l.293.293a.997.997 0 001.414 0 1 1 0 000-1.414L40.414 45 42 43.414l1.293 1.293a.997.997 0 001.414 0 1 1 0 000-1.414L43.414 42 45 40.414l.293.293a.997.997 0 001.414 0 1 1 0 000-1.414L46.414 39 48 37.414l1.293 1.293a.997.997 0 001.414 0 1 1 0 000-1.414L49.414 36 51 34.414l.293.293a.997.997 0 001.414 0 1 1 0 000-1.414L52.414 33 54 31.414l1.293 1.293a.997.997 0 001.414 0 1 1 0 000-1.414L55.414 30 60 25.414V60z" fill="#D15B8F"/></svg>