<svg width="24" height="24" fill="none" xmlns="http://www.w3.org/2000/svg"><path d="M22.47 0H1.534C.686 0 0 .686 0 1.531v20.938C0 23.314.686 24 1.533 24h20.936c.845 0 1.531-.686 1.531-1.531V1.531A1.528 1.528 0 0022.47 0zm-2.562 14.624c.439.447 1.39 1.198 1.218 1.961-.16.702-1.206.446-2.222.486-1.16.05-1.848.075-2.546-.486-.328-.265-.521-.58-.836-.933-.286-.318-.647-.889-1.138-.867-.883.044-.607 1.274-.92 2.112-4.905.772-6.874-2.257-8.612-5.198-.842-1.424-2.058-4.483-2.058-4.483l3.469-.011S7.376 9.228 7.67 9.75c.251.444.527.796.812 1.192.238.329.616.973 1.03.92.672-.086.794-2.695.377-3.568-.166-.354-.564-.478-.976-.598.14-.878 3.89-1.06 4.497-.38.88.99-.61 3.743.596 4.546 1.694-.887 3.14-4.603 3.14-4.603l4.061.025s-.635 2.009-1.3 2.9c-.388.521-1.675 1.683-1.625 2.545.041.683 1.088 1.347 1.626 1.895z" fill="#D15B8F"/></svg>