<svg width="179" height="46" fill="none" xmlns="http://www.w3.org/2000/svg"><path d="M11.944 2.888l9.552-.24c4.448 0 7.696.784 9.744 2.352.768.608 1.392 1.44 1.872 2.496.48 1.056.72 2.288.72 3.696 0 3.264-1.088 6.528-3.264 9.792-3.904 5.856-9.376 8.784-16.416 8.784-2.464 0-4.64-.48-6.528-1.44-.576-.288-1.104-.432-1.584-.432s-1.248.336-2.304 1.008c-1.056.672-1.792 1.008-2.208 1.008-.416 0-.624-.096-.624-.288L1 29.48l.288-.096c0 .032.112.016.336-.048 1.024-.352 1.84-1.072 2.448-2.16.928-1.536 3.744-6.64 8.448-15.312l3.264-6.432c.48-.8 1.424-1.44 2.832-1.92h-1.152c-2.112 0-4.384.224-6.816.672-2.4.416-3.888 1.168-4.464 2.256-.32.576-.48 1.104-.48 1.584 0 .448.064.8.192 1.056.16.256.304.448.432.576.16.096.24.16.24.192 0 .192-.128.288-.384.288S5.56 9.768 5.08 9.032c-.672-1.056-1.008-1.968-1.008-2.736 0-2.272 2.624-3.408 7.872-3.408zm17.52 15.12c.96-2.432 1.44-4.736 1.44-6.912 0-2.208-.752-4-2.256-5.376-1.504-1.376-3.504-2.064-6-2.064-1.696 0-2.832.336-3.408 1.008-.576.64-1.232 1.584-1.968 2.832a74.848 74.848 0 00-1.728 3.216c-.448.864-.944 1.856-1.488 2.976-.352.768-1.328 2.704-2.928 5.808-1.6 3.072-2.528 4.88-2.784 5.424-.224.512-.336.992-.336 1.44 0 .416.4.96 1.2 1.632.96.736 2.416 1.104 4.368 1.104 3.552 0 6.736-1.008 9.552-3.024 2.848-2.048 4.96-4.736 6.336-8.064zm5.615 5.28c-.48 1.248-.72 2.416-.72 3.504 0 1.056.656 1.584 1.968 1.584.48 0 1.104-.144 1.872-.432 1.248-.416 2.544-1.216 3.888-2.4 1.344-1.184 2.448-2.336 3.312-3.456a.519.519 0 01.144.384c0 .16-.112.4-.336.72-1.184 1.632-2.656 3.072-4.416 4.32-1.76 1.248-3.552 1.872-5.376 1.872-2.368 0-3.552-.864-3.552-2.592 0-1.376.736-3.28 2.208-5.712.832-1.312 2.016-2.528 3.552-3.648 1.536-1.152 3.008-1.728 4.416-1.728 1.408 0 2.112.672 2.112 2.016 0 1.408-.56 2.48-1.68 3.216-1.088.704-2.336 1.28-3.744 1.728-1.376.416-2.592.624-3.648.624zm.384-.96h1.056c.544 0 1.184-.112 1.92-.336 1.824-.544 3.008-1.568 3.552-3.072.16-.448.24-.864.24-1.248 0-.416-.128-.704-.384-.864-.256-.192-.48-.288-.672-.288-2.08.032-3.984 1.968-5.712 5.808zm18.097-2.16c-.128 0-.16-.112-.096-.336a3.22 3.22 0 00.096-.864c0-.384-.096-.8-.288-1.248-.32-.864-.848-1.296-1.584-1.296-.704 0-1.28.224-1.728.672-.416.416-.624.8-.624 1.152 0 .352.016.656.048.912.064.224.256.544.576.96.32.416.704.848 1.152 1.296 1.216 1.28 1.824 2.416 1.824 3.408 0 .96-.256 1.808-.768 2.544-1.088 1.6-2.624 2.4-4.608 2.4a6.755 6.755 0 01-2.88-.624c-1.12-.512-1.68-1.296-1.68-2.352 0-.352.096-.8.288-1.344.192-.576.464-1.008.816-1.296.192-.096.304-.064.336.096-.224.672-.336 1.232-.336 1.68 0 .992.688 1.904 2.064 2.736.384.256.8.384 1.248.384 1.568 0 2.576-.272 3.024-.816.48-.576.72-1.264.72-2.064s-.512-1.744-1.536-2.832c-1.216-1.344-1.824-2.48-1.824-3.408-.384.544-1.184 1.568-2.4 3.072-.256.352-.4.384-.432.096-.032-.288.096-.608.384-.96.544-.576 1.792-2.32 3.744-5.232.832-.928 1.824-1.392 2.976-1.392 1.792 0 2.704.624 2.736 1.872 0 .64-.224 1.408-.672 2.304-.16.32-.352.48-.576.48zm9.524 6c-.608.672-1.456 1.344-2.544 2.016-1.056.64-2.032.96-2.928.96-.864 0-1.296-.304-1.296-.912 0-.576.16-1.216.48-1.92.224-.512 1.504-3.232 3.84-8.16a69.706 69.706 0 00-4.608 5.472c-.224.32-.336.288-.336-.096 0-.256.08-.48.24-.672 2.272-2.816 4.016-5.104 5.232-6.864 1.6-.224 2.56-.48 2.88-.768.32-.288.496-.304.528-.048 0 .128-.08.288-.24.48-.128.16-1.424 2.56-3.888 7.2-1.088 2.048-1.632 3.456-1.632 4.224 0 .448.224.672.672.672.992 0 2.784-1.536 5.376-4.608l1.056-1.2c.384.384-.56 1.792-2.832 4.224zm2.688-15.504c-.768 0-1.152-.416-1.152-1.248 0-.384.208-.72.624-1.008.448-.288.832-.432 1.152-.432.352 0 .624.144.816.432.192.256.288.464.288.624 0 .576-.208.992-.624 1.248-.416.256-.784.384-1.104.384zm-15.197 27.6l-.096 1.2c0 1.44.464 2.544 1.392 3.312.896.8 2 1.2 3.312 1.2 1.28 0 2.448-.224 3.504-.672a16.796 16.796 0 002.736-1.392c.8-.512 1.568-1.168 2.304-1.968a209.2 209.2 0 001.92-2.112c.544-.576 1.136-1.44 1.776-2.592.672-1.152 1.168-2 1.488-2.544.352-.544.832-1.52 1.44-2.928s.992-2.304 1.152-2.688c.192-.416.592-1.392 1.2-2.928s.944-2.4 1.008-2.592c-1.056 1.728-2.56 3.424-4.512 5.088-1.92 1.632-3.488 2.448-4.704 2.448-.576 0-.864-.352-.864-1.056v-.336c.224-1.792.976-3.728 2.256-5.808 2.496-4 5.088-6 7.776-6h5.52c.16 0 .24.064.24.192 0 .256-.144.384-.432.384-.704 0-1.28.416-1.728 1.248-.864 1.376-2.384 4.592-4.56 9.648-2.144 5.024-3.648 8.288-4.512 9.792-.864 1.536-2.016 3.056-3.456 4.56-2.56 2.72-5.328 4.08-8.304 4.08a7.76 7.76 0 01-3.6-.864c-1.984-1.056-2.976-2.8-2.976-5.232v-.816c0-.48.208-.72.624-.72.064 0 .096.032.096.096zm24.384-20.832c0-.608-.4-.912-1.2-.912-.8 0-1.696.464-2.688 1.392-.992.928-2.08 2.432-3.264 4.512-1.184 2.048-1.776 3.536-1.776 4.464 0 .384.144.576.432.576.928 0 2.576-1.408 4.944-4.224 2.368-2.848 3.552-4.784 3.552-5.808zm17.31-.864c0 .416-.271 1.008-.815 1.776-.512.768-1.296 2.224-2.352 4.368-1.056 2.112-1.584 3.456-1.584 4.032 0 .544.224.816.672.816.48 0 1.088-.288 1.824-.864a14.477 14.477 0 002.016-1.92 76.785 76.785 0 002.4-2.832c.064.096.096.24.096.432s-.208.56-.624 1.104c-1.632 2.208-3.008 3.744-4.128 4.608-1.12.864-2.128 1.296-3.024 1.296-1.024 0-1.536-.496-1.536-1.488 0-1.024.512-2.56 1.536-4.608a139.134 139.134 0 002.544-5.232c.32-.672.096-.8-.672-.384-3.648 2.272-6.48 6.08-8.496 11.424-.192 0-.576.096-1.152.288-.544.224-.864.336-.96.336-.128 0-.128-.16 0-.48.16-.288.432-.912.816-1.872.416-.96.912-2.176 1.488-3.648 1.12-2.816 1.872-4.672 2.256-5.568a69.706 69.706 0 00-4.608 5.472c-.224.32-.336.288-.336-.096 0-.256.08-.48.24-.672 2.272-2.816 4.016-5.104 5.232-6.864 1.6-.224 2.528-.448 2.784-.672.256-.224.416-.336.48-.336s.096.064.096.192c.032.128-.064.32-.288.576-.192.224-1.44 2.48-3.744 6.768a27.363 27.363 0 015.376-5.328c1.312-.96 2.384-1.44 3.216-1.44.832 0 1.248.272 1.248.816zm5.332-13.776l4.897.192c4.512-.032 8.192-.048 11.04-.048l-1.008 1.248h-3.36c.768 1.44 1.152 4.24 1.152 8.4 0 4.832-.672 9.68-2.016 14.544 5.056-7.168 9.552-12.768 13.488-16.8 1.984-2.048 3.808-3.76 5.472-5.136 1.664-1.408 3.328-2.528 4.992-3.36 1.696-.864 3.168-1.296 4.416-1.296 1.312 0 2.08.304 2.304.912.128.352.192.656.192.912s-.064.576-.192.96-.256.72-.384 1.008c-.096.256-.24.576-.432.96l-.432.864c-.064.16-.256.208-.576.144l-.144-.144c.256-.864.384-1.6.384-2.208 0-1.344-.64-2.016-1.92-2.016-1.664 0-3.936 1.184-6.816 3.552-4.736 3.776-9.6 8.832-14.592 15.168-2.88 3.616-5.008 6.608-6.384 8.976-.032.064-.08.208-.144.432-.064.224-.144.384-.24.48-.096.096-.432.256-1.008.48-.544.224-.928.336-1.152.336-.224 0-.4-.048-.529-.144-.287-.128-.239-.576.145-1.344 1.504-4.96 2.496-9.424 2.976-13.392s.72-6.848.72-8.64c0-1.792-.08-3.024-.24-3.696l-6.288-.048c-5.025 0-7.537 1.152-7.537 3.456 0 .832.209 1.52.624 2.064l-.528.384a38.698 38.698 0 00-.671-1.104c-.8-1.28-1.2-2.048-1.2-2.304V5.96c0-.96.24-1.648.72-2.064.832-.736 2.255-1.104 4.272-1.104zm29.093 23.376c-.608.672-1.456 1.344-2.544 2.016-1.056.64-2.032.96-2.928.96-.864 0-1.296-.304-1.296-.912 0-.576.16-1.216.48-1.92.224-.512 1.504-3.232 3.84-8.16a69.706 69.706 0 00-4.608 5.472c-.224.32-.336.288-.336-.096 0-.256.08-.48.24-.672 2.272-2.816 4.016-5.104 5.232-6.864 1.6-.224 2.56-.48 2.88-.768.32-.288.496-.304.528-.048 0 .128-.08.288-.24.48-.128.16-1.424 2.56-3.888 7.2-1.088 2.048-1.632 3.456-1.632 4.224 0 .448.224.672.672.672.992 0 2.784-1.536 5.376-4.608l1.056-1.2c.384.384-.56 1.792-2.832 4.224zm2.688-15.504c-.768 0-1.152-.416-1.152-1.248 0-.384.208-.72.624-1.008.448-.288.832-.432 1.152-.432.352 0 .624.144.816.432.192.256.288.464.288.624 0 .576-.208.992-.624 1.248-.416.256-.784.384-1.104.384zm8.178 9.504c-.128 0-.16-.112-.096-.336a3.22 3.22 0 00.096-.864c0-.384-.096-.8-.288-1.248-.32-.864-.848-1.296-1.584-1.296-.704 0-1.28.224-1.728.672-.416.416-.624.8-.624 1.152 0 .352.016.656.048.912.064.224.256.544.576.96.32.416.704.848 1.152 1.296 1.216 1.28 1.824 2.416 1.824 3.408 0 .96-.256 1.808-.768 2.544-1.088 1.6-2.624 2.4-4.608 2.4a6.755 6.755 0 01-2.88-.624c-1.12-.512-1.68-1.296-1.68-2.352 0-.352.096-.8.288-1.344.192-.576.464-1.008.816-1.296.192-.096.304-.064.336.096-.224.672-.336 1.232-.336 1.68 0 .992.688 1.904 2.064 2.736.384.256.8.384 1.248.384 1.568 0 2.576-.272 3.024-.816.48-.576.72-1.264.72-2.064s-.512-1.744-1.536-2.832c-1.216-1.344-1.824-2.48-1.824-3.408-.384.544-1.184 1.568-2.4 3.072-.256.352-.4.384-.432.096-.032-.288.096-.608.384-.96.544-.576 1.792-2.32 3.744-5.232.832-.928 1.824-1.392 2.976-1.392 1.792 0 2.704.624 2.736 1.872 0 .64-.224 1.408-.672 2.304-.16.32-.352.48-.576.48zm9.524 6c-.608.672-1.456 1.344-2.544 2.016-1.056.64-2.032.96-2.928.96-.864 0-1.296-.304-1.296-.912 0-.576.16-1.216.48-1.92.224-.512 1.504-3.232 3.84-8.16a69.706 69.706 0 00-4.608 5.472c-.224.32-.336.288-.336-.096 0-.256.08-.48.24-.672 2.272-2.816 4.016-5.104 5.232-6.864 1.6-.224 2.56-.48 2.88-.768.32-.288.496-.304.528-.048 0 .128-.08.288-.24.48-.128.16-1.424 2.56-3.888 7.2-1.088 2.048-1.632 3.456-1.632 4.224 0 .448.224.672.672.672.992 0 2.784-1.536 5.376-4.608l1.056-1.2c.384.384-.56 1.792-2.832 4.224zm2.688-15.504c-.768 0-1.152-.416-1.152-1.248 0-.384.208-.72.624-1.008.448-.288.832-.432 1.152-.432.352 0 .624.144.816.432.192.256.288.464.288.624 0 .576-.208.992-.624 1.248-.416.256-.784.384-1.104.384zm11.011 6.864c0 1.728-.864 3.84-2.592 6.336-.672.896-1.28 1.6-1.824 2.112 2.112 0 4.064-1.184 5.856-3.552.16-.16.24-.096.24.192 0 .256-.064.464-.192.624-1.632 2.272-3.488 3.408-5.568 3.408-.288 0-.576-.016-.864-.048-1.792 1.664-3.808 2.496-6.048 2.496-1.312 0-1.968-.56-1.968-1.68 0-1.824.88-3.952 2.64-6.384 1.12-1.6 2.48-2.864 4.08-3.792 1.696-1.056 3.136-1.584 4.32-1.584 1.28 0 1.92.624 1.92 1.872zm-2.304.048c0-.768-.288-1.152-.864-1.152-.192 0-.56.112-1.104.336-.544.192-1.232.72-2.064 1.584-.8.832-1.568 1.904-2.304 3.216-1.376 2.272-2.064 3.968-2.064 5.088 0 1.088.288 1.632.864 1.632.448 0 .944-.144 1.488-.432.544-.32.976-.64 1.296-.96.992-1.056 2.032-2.48 3.12-4.272 1.088-1.824 1.632-3.504 1.632-5.04zm17.791-1.008c0 .416-.272 1.008-.816 1.776-.512.768-1.296 2.224-2.352 4.368-1.056 2.112-1.584 3.456-1.584 4.032 0 .544.224.816.672.816.48 0 1.088-.288 1.824-.864a14.477 14.477 0 002.016-1.92 76.785 76.785 0 002.4-2.832c.064.096.096.24.096.432s-.208.56-.624 1.104c-1.632 2.208-3.008 3.744-4.128 4.608-1.12.864-2.128 1.296-3.024 1.296-1.024 0-1.536-.496-1.536-1.488 0-1.024.512-2.56 1.536-4.608a139.134 139.134 0 002.544-5.232c.32-.672.096-.8-.672-.384-3.648 2.272-6.48 6.08-8.496 11.424-.192 0-.576.096-1.152.288-.544.224-.864.336-.96.336-.128 0-.128-.16 0-.48.16-.288.432-.912.816-1.872.416-.96.912-2.176 1.488-3.648 1.12-2.816 1.872-4.672 2.256-5.568a69.706 69.706 0 00-4.608 5.472c-.224.32-.336.288-.336-.096 0-.256.08-.48.24-.672 2.272-2.816 4.016-5.104 5.232-6.864 1.6-.224 2.528-.448 2.784-.672.256-.224.416-.336.48-.336s.096.064.096.192c.032.128-.064.32-.288.576-.192.224-1.44 2.48-3.744 6.768a27.36 27.36 0 015.376-5.328c1.312-.96 2.384-1.44 3.216-1.44.832 0 1.248.272 1.248.816z" fill="#fff"/></svg>