<svg width="179" height="46" viewBox="0 0 179 46" fill="none" xmlns="http://www.w3.org/2000/svg">
<path d="M11.944 2.888L21.496 2.648C25.944 2.648 29.192 3.432 31.24 5C32.008 5.608 32.632 6.44 33.112 7.496C33.592 8.552 33.832 9.784 33.832 11.192C33.832 14.456 32.744 17.72 30.568 20.984C26.664 26.84 21.192 29.768 14.152 29.768C11.688 29.768 9.512 29.288 7.624 28.328C7.048 28.04 6.52 27.896 6.04 27.896C5.56 27.896 4.792 28.232 3.736 28.904C2.68 29.576 1.944 29.912 1.528 29.912C1.112 29.912 0.904 29.816 0.904 29.624L1 29.48L1.288 29.384C1.288 29.416 1.4 29.4 1.624 29.336C2.648 28.984 3.464 28.264 4.072 27.176C5 25.64 7.816 20.536 12.52 11.864L15.784 5.432C16.264 4.632 17.208 3.992 18.616 3.512H17.464C15.352 3.512 13.08 3.736 10.648 4.184C8.248 4.6 6.76 5.352 6.184 6.44C5.864 7.016 5.704 7.544 5.704 8.024C5.704 8.472 5.768 8.824 5.896 9.08C6.056 9.336 6.2 9.528 6.328 9.656C6.488 9.752 6.568 9.816 6.568 9.848C6.568 10.04 6.44 10.136 6.184 10.136C5.928 10.136 5.56 9.768 5.08 9.032C4.408 7.976 4.072 7.064 4.072 6.296C4.072 4.024 6.696 2.888 11.944 2.888ZM29.464 18.008C30.424 15.576 30.904 13.272 30.904 11.096C30.904 8.888 30.152 7.096 28.648 5.72C27.144 4.344 25.144 3.656 22.648 3.656C20.952 3.656 19.816 3.992 19.24 4.664C18.664 5.304 18.008 6.248 17.272 7.496C16.568 8.744 15.992 9.816 15.544 10.712C15.096 11.576 14.6 12.568 14.056 13.688C13.704 14.456 12.728 16.392 11.128 19.496C9.528 22.568 8.6 24.376 8.344 24.92C8.12 25.432 8.008 25.912 8.008 26.36C8.008 26.776 8.408 27.32 9.208 27.992C10.168 28.728 11.624 29.096 13.576 29.096C17.128 29.096 20.312 28.088 23.128 26.072C25.976 24.024 28.088 21.336 29.464 18.008ZM35.0789 23.288C34.5989 24.536 34.3589 25.704 34.3589 26.792C34.3589 27.848 35.0149 28.376 36.3269 28.376C36.8069 28.376 37.4309 28.232 38.1989 27.944C39.4469 27.528 40.7429 26.728 42.0869 25.544C43.4309 24.36 44.5349 23.208 45.3989 22.088C45.4949 22.184 45.5429 22.312 45.5429 22.472C45.5429 22.632 45.4309 22.872 45.2069 23.192C44.0229 24.824 42.5509 26.264 40.7909 27.512C39.0309 28.76 37.2389 29.384 35.4149 29.384C33.0469 29.384 31.8629 28.52 31.8629 26.792C31.8629 25.416 32.5989 23.512 34.0709 21.08C34.9029 19.768 36.0869 18.552 37.6229 17.432C39.1589 16.28 40.6309 15.704 42.0389 15.704C43.4469 15.704 44.1509 16.376 44.1509 17.72C44.1509 19.128 43.5909 20.2 42.4709 20.936C41.3829 21.64 40.1349 22.216 38.7269 22.664C37.3509 23.08 36.1349 23.288 35.0789 23.288ZM35.4629 22.328C35.6549 22.328 36.0069 22.328 36.5189 22.328C37.0629 22.328 37.7029 22.216 38.4389 21.992C40.2629 21.448 41.4469 20.424 41.9909 18.92C42.1509 18.472 42.2309 18.056 42.2309 17.672C42.2309 17.256 42.1029 16.968 41.8469 16.808C41.5909 16.616 41.3669 16.52 41.1749 16.52C39.0949 16.552 37.1909 18.488 35.4629 22.328ZM53.56 20.168C53.432 20.168 53.4 20.056 53.464 19.832C53.528 19.608 53.56 19.32 53.56 18.968C53.56 18.584 53.464 18.168 53.272 17.72C52.952 16.856 52.424 16.424 51.688 16.424C50.984 16.424 50.408 16.648 49.96 17.096C49.544 17.512 49.336 17.896 49.336 18.248C49.336 18.6 49.352 18.904 49.384 19.16C49.448 19.384 49.64 19.704 49.96 20.12C50.28 20.536 50.664 20.968 51.112 21.416C52.328 22.696 52.936 23.832 52.936 24.824C52.936 25.784 52.68 26.632 52.168 27.368C51.08 28.968 49.544 29.768 47.56 29.768C46.536 29.768 45.576 29.56 44.68 29.144C43.56 28.632 43 27.848 43 26.792C43 26.44 43.096 25.992 43.288 25.448C43.48 24.872 43.752 24.44 44.104 24.152C44.296 24.056 44.408 24.088 44.44 24.248C44.216 24.92 44.104 25.48 44.104 25.928C44.104 26.92 44.792 27.832 46.168 28.664C46.552 28.92 46.968 29.048 47.416 29.048C48.984 29.048 49.992 28.776 50.44 28.232C50.92 27.656 51.16 26.968 51.16 26.168C51.16 25.368 50.648 24.424 49.624 23.336C48.408 21.992 47.8 20.856 47.8 19.928C47.416 20.472 46.616 21.496 45.4 23C45.144 23.352 45 23.384 44.968 23.096C44.936 22.808 45.064 22.488 45.352 22.136C45.896 21.56 47.144 19.816 49.096 16.904C49.928 15.976 50.92 15.512 52.072 15.512C53.864 15.512 54.776 16.136 54.808 17.384C54.808 18.024 54.584 18.792 54.136 19.688C53.976 20.008 53.784 20.168 53.56 20.168ZM63.0843 26.168C62.4763 26.84 61.6283 27.512 60.5403 28.184C59.4843 28.824 58.5083 29.144 57.6123 29.144C56.7483 29.144 56.3163 28.84 56.3163 28.232C56.3163 27.656 56.4763 27.016 56.7963 26.312C57.0203 25.8 58.3003 23.08 60.6363 18.152C58.9403 19.976 57.4043 21.8 56.0283 23.624C55.8043 23.944 55.6923 23.912 55.6923 23.528C55.6923 23.272 55.7723 23.048 55.9323 22.856C58.2043 20.04 59.9483 17.752 61.1643 15.992C62.7643 15.768 63.7243 15.512 64.0443 15.224C64.3643 14.936 64.5403 14.92 64.5723 15.176C64.5723 15.304 64.4923 15.464 64.3323 15.656C64.2043 15.816 62.9083 18.216 60.4443 22.856C59.3563 24.904 58.8123 26.312 58.8123 27.08C58.8123 27.528 59.0363 27.752 59.4843 27.752C60.4763 27.752 62.2683 26.216 64.8603 23.144L65.9163 21.944C66.3003 22.328 65.3563 23.736 63.0843 26.168ZM65.7723 10.664C65.0043 10.664 64.6203 10.248 64.6203 9.416C64.6203 9.032 64.8283 8.696 65.2443 8.408C65.6923 8.12 66.0763 7.976 66.3963 7.976C66.7483 7.976 67.0203 8.12 67.2123 8.408C67.4043 8.664 67.5003 8.872 67.5003 9.032C67.5003 9.608 67.2923 10.024 66.8763 10.28C66.4603 10.536 66.0923 10.664 65.7723 10.664ZM50.5746 38.264L50.4786 39.464C50.4786 40.904 50.9426 42.008 51.8706 42.776C52.7666 43.576 53.8706 43.976 55.1826 43.976C56.4626 43.976 57.6306 43.752 58.6866 43.304C59.7106 42.888 60.6226 42.424 61.4226 41.912C62.2226 41.4 62.9906 40.744 63.7266 39.944C64.4626 39.144 65.1026 38.44 65.6466 37.832C66.1906 37.256 66.7826 36.392 67.4226 35.24C68.0946 34.088 68.5906 33.24 68.9106 32.696C69.2626 32.152 69.7426 31.176 70.3506 29.768C70.9586 28.36 71.3426 27.464 71.5026 27.08C71.6946 26.664 72.0946 25.688 72.7026 24.152C73.3106 22.616 73.6466 21.752 73.7106 21.56C72.6546 23.288 71.1506 24.984 69.1986 26.648C67.2786 28.28 65.7106 29.096 64.4946 29.096C63.9186 29.096 63.6306 28.744 63.6306 28.04V27.704C63.8546 25.912 64.6066 23.976 65.8866 21.896C68.3826 17.896 70.9746 15.896 73.6626 15.896H79.1826C79.3426 15.896 79.4226 15.96 79.4226 16.088C79.4226 16.344 79.2786 16.472 78.9906 16.472C78.2866 16.472 77.7106 16.888 77.2626 17.72C76.3986 19.096 74.8786 22.312 72.7026 27.368C70.5586 32.392 69.0546 35.656 68.1906 37.16C67.3266 38.696 66.1746 40.216 64.7346 41.72C62.1746 44.44 59.4066 45.8 56.4306 45.8C55.1506 45.8 53.9506 45.512 52.8306 44.936C50.8466 43.88 49.8546 42.136 49.8546 39.704V38.888C49.8546 38.408 50.0626 38.168 50.4786 38.168C50.5426 38.168 50.5746 38.2 50.5746 38.264ZM74.9586 17.432C74.9586 16.824 74.5586 16.52 73.7586 16.52C72.9586 16.52 72.0626 16.984 71.0706 17.912C70.0786 18.84 68.9906 20.344 67.8066 22.424C66.6226 24.472 66.0306 25.96 66.0306 26.888C66.0306 27.272 66.1746 27.464 66.4626 27.464C67.3906 27.464 69.0386 26.056 71.4066 23.24C73.7746 20.392 74.9586 18.456 74.9586 17.432ZM92.2698 16.568C92.2698 16.984 91.9978 17.576 91.4538 18.344C90.9418 19.112 90.1578 20.568 89.1018 22.712C88.0458 24.824 87.5178 26.168 87.5178 26.744C87.5178 27.288 87.7418 27.56 88.1898 27.56C88.6698 27.56 89.2778 27.272 90.0138 26.696C90.7818 26.088 91.4538 25.448 92.0298 24.776C92.6378 24.104 93.4378 23.16 94.4298 21.944C94.4938 22.04 94.5258 22.184 94.5258 22.376C94.5258 22.568 94.3178 22.936 93.9018 23.48C92.2698 25.688 90.8938 27.224 89.7738 28.088C88.6538 28.952 87.6458 29.384 86.7498 29.384C85.7258 29.384 85.2138 28.888 85.2138 27.896C85.2138 26.872 85.7258 25.336 86.7498 23.288C87.8058 21.208 88.6538 19.464 89.2938 18.056C89.6138 17.384 89.3898 17.256 88.6218 17.672C84.9738 19.944 82.1418 23.752 80.1258 29.096C79.9338 29.096 79.5498 29.192 78.9738 29.384C78.4298 29.608 78.1098 29.72 78.0138 29.72C77.8858 29.72 77.8858 29.56 78.0138 29.24C78.1738 28.952 78.4458 28.328 78.8298 27.368C79.2458 26.408 79.7418 25.192 80.3178 23.72C81.4378 20.904 82.1898 19.048 82.5738 18.152C80.8778 19.976 79.3418 21.8 77.9658 23.624C77.7418 23.944 77.6298 23.912 77.6298 23.528C77.6298 23.272 77.7098 23.048 77.8698 22.856C80.1418 20.04 81.8858 17.752 83.1018 15.992C84.7018 15.768 85.6298 15.544 85.8858 15.32C86.1418 15.096 86.3018 14.984 86.3658 14.984C86.4298 14.984 86.4618 15.048 86.4618 15.176C86.4938 15.304 86.3978 15.496 86.1738 15.752C85.9818 15.976 84.7338 18.232 82.4297 22.52C83.9658 20.504 85.7578 18.728 87.8058 17.192C89.1178 16.232 90.1898 15.752 91.0218 15.752C91.8538 15.752 92.2698 16.024 92.2698 16.568ZM97.6015 2.792L102.498 2.984C107.01 2.952 110.69 2.936 113.538 2.936L112.53 4.184H109.17C109.938 5.624 110.322 8.424 110.322 12.584C110.322 17.416 109.65 22.264 108.306 27.128C113.362 19.96 117.858 14.36 121.794 10.328C123.778 8.28 125.602 6.568 127.266 5.192C128.93 3.784 130.594 2.664 132.258 1.832C133.954 0.967998 135.426 0.535997 136.674 0.535997C137.986 0.535997 138.754 0.839998 138.978 1.448C139.106 1.8 139.17 2.104 139.17 2.36C139.17 2.616 139.106 2.936 138.978 3.32C138.85 3.704 138.722 4.04 138.594 4.328C138.498 4.584 138.354 4.904 138.162 5.288C137.97 5.672 137.826 5.96 137.73 6.152C137.666 6.312 137.474 6.36 137.154 6.296C137.09 6.232 137.042 6.184 137.01 6.152C137.266 5.288 137.394 4.552 137.394 3.944C137.394 2.6 136.754 1.928 135.474 1.928C133.81 1.928 131.538 3.112 128.658 5.48C123.922 9.256 119.058 14.312 114.066 20.648C111.186 24.264 109.058 27.256 107.682 29.624C107.65 29.688 107.602 29.832 107.538 30.056C107.474 30.28 107.394 30.44 107.298 30.536C107.202 30.632 106.866 30.792 106.29 31.016C105.746 31.24 105.362 31.352 105.138 31.352C104.914 31.352 104.738 31.304 104.609 31.208C104.322 31.08 104.37 30.632 104.754 29.864C106.258 24.904 107.25 20.44 107.73 16.472C108.21 12.504 108.45 9.624 108.45 7.832C108.45 6.04 108.37 4.808 108.21 4.136L101.922 4.088C96.8975 4.088 94.3855 5.24 94.3855 7.544C94.3855 8.376 94.5935 9.064 95.0095 9.608L94.4815 9.992C94.4495 9.928 94.2255 9.56 93.8095 8.888C93.0095 7.608 92.6095 6.84 92.6095 6.584C92.6095 6.296 92.6095 6.088 92.6095 5.96C92.6095 5 92.8495 4.312 93.3295 3.896C94.1615 3.16 95.5855 2.792 97.6015 2.792ZM126.694 26.168C126.086 26.84 125.238 27.512 124.15 28.184C123.094 28.824 122.118 29.144 121.222 29.144C120.358 29.144 119.926 28.84 119.926 28.232C119.926 27.656 120.086 27.016 120.406 26.312C120.63 25.8 121.91 23.08 124.246 18.152C122.55 19.976 121.014 21.8 119.638 23.624C119.414 23.944 119.302 23.912 119.302 23.528C119.302 23.272 119.382 23.048 119.542 22.856C121.814 20.04 123.558 17.752 124.774 15.992C126.374 15.768 127.334 15.512 127.654 15.224C127.974 14.936 128.15 14.92 128.182 15.176C128.182 15.304 128.102 15.464 127.942 15.656C127.814 15.816 126.518 18.216 124.054 22.856C122.966 24.904 122.422 26.312 122.422 27.08C122.422 27.528 122.646 27.752 123.094 27.752C124.086 27.752 125.878 26.216 128.47 23.144L129.526 21.944C129.91 22.328 128.966 23.736 126.694 26.168ZM129.382 10.664C128.614 10.664 128.23 10.248 128.23 9.416C128.23 9.032 128.438 8.696 128.854 8.408C129.302 8.12 129.686 7.976 130.006 7.976C130.358 7.976 130.63 8.12 130.822 8.408C131.014 8.664 131.11 8.872 131.11 9.032C131.11 9.608 130.902 10.024 130.486 10.28C130.07 10.536 129.702 10.664 129.382 10.664ZM137.56 20.168C137.432 20.168 137.4 20.056 137.464 19.832C137.528 19.608 137.56 19.32 137.56 18.968C137.56 18.584 137.464 18.168 137.272 17.72C136.952 16.856 136.424 16.424 135.688 16.424C134.984 16.424 134.408 16.648 133.96 17.096C133.544 17.512 133.336 17.896 133.336 18.248C133.336 18.6 133.352 18.904 133.384 19.16C133.448 19.384 133.64 19.704 133.96 20.12C134.28 20.536 134.664 20.968 135.112 21.416C136.328 22.696 136.936 23.832 136.936 24.824C136.936 25.784 136.68 26.632 136.168 27.368C135.08 28.968 133.544 29.768 131.56 29.768C130.536 29.768 129.576 29.56 128.68 29.144C127.56 28.632 127 27.848 127 26.792C127 26.44 127.096 25.992 127.288 25.448C127.48 24.872 127.752 24.44 128.104 24.152C128.296 24.056 128.408 24.088 128.44 24.248C128.216 24.92 128.104 25.48 128.104 25.928C128.104 26.92 128.792 27.832 130.168 28.664C130.552 28.92 130.968 29.048 131.416 29.048C132.984 29.048 133.992 28.776 134.44 28.232C134.92 27.656 135.16 26.968 135.16 26.168C135.16 25.368 134.648 24.424 133.624 23.336C132.408 21.992 131.8 20.856 131.8 19.928C131.416 20.472 130.616 21.496 129.4 23C129.144 23.352 129 23.384 128.968 23.096C128.936 22.808 129.064 22.488 129.352 22.136C129.896 21.56 131.144 19.816 133.096 16.904C133.928 15.976 134.92 15.512 136.072 15.512C137.864 15.512 138.776 16.136 138.808 17.384C138.808 18.024 138.584 18.792 138.136 19.688C137.976 20.008 137.784 20.168 137.56 20.168ZM147.084 26.168C146.476 26.84 145.628 27.512 144.54 28.184C143.484 28.824 142.508 29.144 141.612 29.144C140.748 29.144 140.316 28.84 140.316 28.232C140.316 27.656 140.476 27.016 140.796 26.312C141.02 25.8 142.3 23.08 144.636 18.152C142.94 19.976 141.404 21.8 140.028 23.624C139.804 23.944 139.692 23.912 139.692 23.528C139.692 23.272 139.772 23.048 139.932 22.856C142.204 20.04 143.948 17.752 145.164 15.992C146.764 15.768 147.724 15.512 148.044 15.224C148.364 14.936 148.54 14.92 148.572 15.176C148.572 15.304 148.492 15.464 148.332 15.656C148.204 15.816 146.908 18.216 144.444 22.856C143.356 24.904 142.812 26.312 142.812 27.08C142.812 27.528 143.036 27.752 143.484 27.752C144.476 27.752 146.268 26.216 148.86 23.144L149.916 21.944C150.3 22.328 149.356 23.736 147.084 26.168ZM149.772 10.664C149.004 10.664 148.62 10.248 148.62 9.416C148.62 9.032 148.828 8.696 149.244 8.408C149.692 8.12 150.076 7.976 150.396 7.976C150.748 7.976 151.02 8.12 151.212 8.408C151.404 8.664 151.5 8.872 151.5 9.032C151.5 9.608 151.292 10.024 150.876 10.28C150.46 10.536 150.092 10.664 149.772 10.664ZM160.783 17.528C160.783 19.256 159.919 21.368 158.191 23.864C157.519 24.76 156.911 25.464 156.367 25.976C158.479 25.976 160.431 24.792 162.223 22.424C162.383 22.264 162.463 22.328 162.463 22.616C162.463 22.872 162.399 23.08 162.271 23.24C160.639 25.512 158.783 26.648 156.703 26.648C156.415 26.648 156.127 26.632 155.839 26.6C154.047 28.264 152.031 29.096 149.791 29.096C148.479 29.096 147.823 28.536 147.823 27.416C147.823 25.592 148.703 23.464 150.463 21.032C151.583 19.432 152.943 18.168 154.543 17.24C156.239 16.184 157.679 15.656 158.863 15.656C160.143 15.656 160.783 16.28 160.783 17.528ZM158.479 17.576C158.479 16.808 158.191 16.424 157.615 16.424C157.423 16.424 157.055 16.536 156.511 16.76C155.967 16.952 155.279 17.48 154.447 18.344C153.647 19.176 152.879 20.248 152.143 21.56C150.767 23.832 150.079 25.528 150.079 26.648C150.079 27.736 150.367 28.28 150.943 28.28C151.391 28.28 151.887 28.136 152.431 27.848C152.975 27.528 153.407 27.208 153.727 26.888C154.719 25.832 155.759 24.408 156.847 22.616C157.935 20.792 158.479 19.112 158.479 17.576ZM176.27 16.568C176.27 16.984 175.998 17.576 175.454 18.344C174.942 19.112 174.158 20.568 173.102 22.712C172.046 24.824 171.518 26.168 171.518 26.744C171.518 27.288 171.742 27.56 172.19 27.56C172.67 27.56 173.278 27.272 174.014 26.696C174.782 26.088 175.454 25.448 176.03 24.776C176.638 24.104 177.438 23.16 178.43 21.944C178.494 22.04 178.526 22.184 178.526 22.376C178.526 22.568 178.318 22.936 177.902 23.48C176.27 25.688 174.894 27.224 173.774 28.088C172.654 28.952 171.646 29.384 170.75 29.384C169.726 29.384 169.214 28.888 169.214 27.896C169.214 26.872 169.726 25.336 170.75 23.288C171.806 21.208 172.654 19.464 173.294 18.056C173.614 17.384 173.39 17.256 172.622 17.672C168.974 19.944 166.142 23.752 164.126 29.096C163.934 29.096 163.55 29.192 162.974 29.384C162.43 29.608 162.11 29.72 162.014 29.72C161.886 29.72 161.886 29.56 162.014 29.24C162.174 28.952 162.446 28.328 162.83 27.368C163.246 26.408 163.742 25.192 164.318 23.72C165.438 20.904 166.19 19.048 166.574 18.152C164.878 19.976 163.342 21.8 161.966 23.624C161.742 23.944 161.63 23.912 161.63 23.528C161.63 23.272 161.71 23.048 161.87 22.856C164.142 20.04 165.886 17.752 167.102 15.992C168.702 15.768 169.63 15.544 169.886 15.32C170.142 15.096 170.302 14.984 170.366 14.984C170.43 14.984 170.462 15.048 170.462 15.176C170.494 15.304 170.398 15.496 170.174 15.752C169.982 15.976 168.734 18.232 166.43 22.52C167.966 20.504 169.758 18.728 171.806 17.192C173.118 16.232 174.19 15.752 175.022 15.752C175.854 15.752 176.27 16.024 176.27 16.568Z" fill="#D15B8F"/>
</svg>
