<svg width="48" height="48" viewBox="0 0 48 48" fill="none" xmlns="http://www.w3.org/2000/svg">
<g clip-path="url(#clip0)">
<path d="M36.4987 42.0017H5.49995C2.46599 42.0017 0 39.5358 0 36.5018V5.503C0 2.46904 2.46599 0.00305176 5.49995 0.00305176H30.4989C31.3269 0.00305176 31.9989 0.675028 31.9989 1.503C31.9989 2.33098 31.3269 3.00296 30.4989 3.00296H5.49995C4.12194 3.00296 2.99991 4.12499 2.99991 5.503V36.5018C2.99991 37.8798 4.12194 39.0018 5.49995 39.0018H36.4987C37.8767 39.0018 38.9988 37.8798 38.9988 36.5018V19.5024C38.9988 18.6745 39.6708 18.0025 40.4987 18.0025C41.3267 18.0025 41.9987 18.6745 41.9987 19.5024V36.5018C41.9987 39.5358 39.5327 42.0017 36.4987 42.0017Z" fill="white"/>
<path d="M24.4991 25.0008C24.1153 25.0008 23.7312 24.8547 23.4393 24.5607L14.4396 15.5609C13.8537 14.975 13.8537 14.0251 14.4396 13.4392C15.0255 12.8533 15.9755 12.8533 16.5614 13.4392L24.5013 21.3788L45.4384 0.441667C46.0247 -0.144618 46.9746 -0.144618 47.5605 0.441667C48.1465 1.02759 48.1465 1.97751 47.5605 2.56343L25.5611 24.5629C25.267 24.8547 24.8833 25.0008 24.4991 25.0008Z" fill="white"/>
</g>
<defs>
<clipPath id="clip0">
<rect width="48" height="48" fill="white"/>
</clipPath>
</defs>
</svg>
