<svg width="64" height="64" viewBox="0 0 64 64" fill="none" xmlns="http://www.w3.org/2000/svg">
<path d="M62 35.875C62 35.6042 61.8903 35.3451 61.6958 35.1567L57.6958 31.2817C57.5093 31.1011 57.2597 31 57 31H50.4142L50 30.5858V9C50 8.44775 49.5523 8 49 8H40.828C40.4152 6.83612 39.3037 6 38 6H36.8995C36.4349 3.72058 34.4146 2 32 2C29.5854 2 27.5651 3.72058 27.1005 6H26C24.6963 6 23.5848 6.83612 23.172 8H15C14.4477 8 14 8.44775 14 9V33H7C6.7348 33 6.48041 33.1053 6.29291 33.2928L2.29291 37.2928C2.10535 37.4805 2 37.7347 2 38V61C2 61.5522 2.44769 62 3 62H61C61.5523 62 62 61.5522 62 61V43.0003C62 43.0001 62 35.875 62 35.875ZM60 36.2986V40.5858L56 36.5858V33H56.595L60 36.2986ZM60 54H56V49C56 48.7347 55.8947 48.4805 55.7071 48.2928L50.207 42.7928C50.0871 42.6729 49.9985 42.5328 49.9421 42.3721C49.8566 42.1321 49.8566 41.8679 49.9437 41.6234C49.9985 41.4672 50.0871 41.3271 50.2072 41.207C50.4188 40.9954 50.7004 40.8788 51 40.8788C51.2996 40.8788 51.5812 40.9954 51.7929 41.2072L54.2929 43.7072L57.2929 46.7072C57.4882 46.9023 57.7441 47 58 47C58.2559 47 58.5118 46.9023 58.7071 46.7072L60 45.4142V54ZM50 54V45.4142L54 49.4142V54H50ZM59.5858 43L58 44.5858L55.7071 42.2929L55.7071 42.2928L53.2072 39.793L43 29.5858V28H44.5858L59.5858 43ZM54 33V34.5858L52.4142 33H54ZM26 8H28C28.5523 8 29 7.55225 29 7C29 5.34583 30.3458 4 32 4C33.6542 4 35 5.34583 35 7C35 7.55225 35.4477 8 36 8H38C38.5514 8 39 8.44861 39 9V10H25V9C25 8.44861 25.4486 8 26 8ZM14 39.0443C12.9111 38.6779 11.6589 38.927 10.7929 39.7928L10 40.5858V35H14V39.0443ZM4 38.4142L7.41425 35H8V43C8 43.4044 8.24365 43.769 8.61731 43.9238C8.99097 44.0787 9.42114 43.993 9.70709 43.7072L12.2071 41.2072C12.6443 40.7699 13.3557 40.7699 13.7929 41.2072C14.0047 41.4189 14.1213 41.7004 14.1213 42C14.1213 42.2996 14.0047 42.5811 13.7929 42.7928L8.29291 48.2928C8.10535 48.4805 8 48.7347 8 49V54H4V38.4142ZM10 49.4142L14 45.4142V54H10V49.4142ZM4 56H9H14V60H4V56ZM16 10H23V11C23 11.5522 23.4477 12 24 12H40C40.5523 12 41 11.5522 41 11V10H48V28.5858L45.7071 26.2928C45.5196 26.1053 45.2652 26 45 26H42C41.4477 26 41 26.4478 41 27V30C41 30.2653 41.1053 30.5195 41.2929 30.7072L48 37.4142V60H16V10ZM60 60H50V56H60V60Z" fill="#D15B8F"/>
<path d="M20 20.4142V23C20 23.5522 20.4477 24 21 24H27C27.5523 24 28 23.5522 28 23V20.4142L28.2929 20.7072L29.7071 19.2928L27.7071 17.2928L24.7071 14.2928C24.3166 13.9025 23.6834 13.9025 23.2929 14.2928L20.2929 17.2928L18.2929 19.2928L19.7071 20.7072L20 20.4142ZM26 18.4142V22H22V18.4142L24 16.4142L26 18.4142Z" fill="#D15B8F"/>
<path d="M24 41C26.2056 41 28 39.2056 28 37C28 35.9624 27.6027 35.016 26.9525 34.3044C26.9831 34.2084 27 34.1062 27 34V30C27 29.4478 26.5523 29 26 29H25V27H23V29H22C21.4477 29 21 29.4478 21 30V34C21 34.1062 21.0169 34.2084 21.0475 34.3044C20.3973 35.016 20 35.9624 20 37C20 39.2056 21.7944 41 24 41ZM24 39C22.8972 39 22 38.1028 22 37C22 35.8972 22.8972 35 24 35C25.1028 35 26 35.8972 26 37C26 38.1028 25.1028 39 24 39ZM23 31H25V33H23V31Z" fill="#D15B8F"/>
<path d="M28 47H25V45H26V43H22V45H23V47H19C18.4477 47 18 47.4478 18 48V52C18 52.5522 18.4477 53 19 53H24V55C24 55.5522 24.4477 56 25 56H29C29.5523 56 30 55.5522 30 55V49C30 47.8972 29.1028 47 28 47ZM28 54H26V52C26 51.4478 25.5523 51 25 51H20V49H28V54Z" fill="#D15B8F"/>
<path d="M33 22H45V24H33V22Z" fill="#D15B8F"/>
<path d="M33 37H45V39H33V37Z" fill="#D15B8F"/>
<path d="M33 52H45V54H33V52Z" fill="#D15B8F"/>
<path d="M31 6H33V8H31V6Z" fill="#D15B8F"/>
</svg>
