<svg width="64" height="64" viewBox="0 0 64 64" fill="none" xmlns="http://www.w3.org/2000/svg">
<path d="M32 47C31.4486 47 31 46.5514 31 46H29C29 47.6542 30.3458 49 32 49C33.6542 49 35 47.6542 35 46H33C33 46.5514 32.5514 47 32 47Z" fill="#D15B8F"/>
<path d="M25.0998 40H24.9002C24.403 40 24 40.403 24 40.9002V41.0998C24 41.597 24.403 42 24.9002 42H25.0998C25.597 42 26 41.597 26 41.0998V40.9002C26 40.403 25.597 40 25.0998 40Z" fill="#D15B8F"/>
<path d="M39 40C38.4477 40 38 40.4477 38 41C38 41.5523 38.4477 42 39 42C39.5523 42 40 41.5523 40 41C40 40.4477 39.5523 40 39 40Z" fill="#D15B8F"/>
<path d="M28.4453 7.83204L30.8098 9.40833L30.0513 11.6837C29.9235 12.0675 30.0393 12.4905 30.3449 12.7555C30.5306 12.9166 30.7643 13 31.0002 13C31.1523 13 31.3054 12.9653 31.4473 12.8944L37.4473 9.89442C37.766 9.73499 37.976 9.41798 37.9981 9.06214C38.0203 8.70631 37.8513 8.36573 37.5547 8.16798L35.1411 6.55885L35.9701 3.24256C36.0703 2.84168 35.9137 2.42054 35.5761 2.18262C35.2383 1.94471 34.789 1.93897 34.4453 2.16798L28.4453 6.16798C28.1671 6.3534 28 6.66566 28 7.00001C28 7.33436 28.1671 7.64661 28.4453 7.83204ZM33.4025 5.26685L33.0299 6.75745C32.9274 7.16749 33.0936 7.59766 33.4453 7.83204L35.0115 8.87623L32.7122 10.0259L32.9487 9.31629C33.0913 8.88843 32.9299 8.4181 32.5547 8.16798L30.8027 7.00001L33.4025 5.26685Z" fill="#D15B8F"/>
<path d="M56 13.8734C57.7233 13.4282 59 11.8604 59 10C59 8.90234 58.5497 7.86951 57.7816 7.12634C57.9757 6.64657 58.0448 6.11658 57.9712 5.58043C57.7724 4.13281 56.5221 3.03 55.0612 3.00062C54.5035 2.9894 53.9797 3.13196 53.5278 3.38757C52.9943 2.55408 52.0609 2 51 2C49.9391 2 49.0057 2.55408 48.4722 3.38757C48.0203 3.13196 47.4965 2.9894 46.9388 3.00062C45.4779 3.03 44.2276 4.13281 44.0288 5.58043C43.9552 6.11658 44.0243 6.64657 44.2184 7.12634C43.4503 7.86951 43 8.90234 43 10C43 11.8604 44.2767 13.4282 46 13.8734V15H44V17H46.3871C46.0832 17.7114 46.1559 18.5364 46.5881 19.1849L48 21.3027V23C48 23.5523 48.4477 24 49 24H50V27.172C49.1491 27.4738 48.4738 28.1491 48.172 29H42.828C42.3834 27.7466 41.1286 26.8734 39.6962 27.0151C38.2898 27.1542 37.1542 28.2898 37.0151 29.6962C36.8734 31.1286 37.7467 32.3834 39 32.828V35H33V32.828C34.1639 32.4152 35 31.3036 35 30C35 28.6964 34.1639 27.5848 33 27.172V24H34C34.5523 24 35 23.5523 35 23V21.3027L36.412 19.1848C36.8442 18.5364 36.9168 17.7113 36.6129 17H39V15H25V17H26.4066C26.1249 17.8221 26.3279 18.742 26.9551 19.3694L29 21.4142V23C29 23.5523 29.4477 24 30 24H31V27.172C29.8361 27.5848 29 28.6964 29 30C29 31.3036 29.8361 32.4152 31 32.828V35H25V32.828C26.2534 32.3834 27.1266 31.1286 26.9849 29.6962C26.8459 28.2898 25.7102 27.1542 24.3038 27.0151C22.8714 26.8734 21.6166 27.7466 21.172 29H15.828C15.5262 28.1491 14.8509 27.4738 14 27.172V24H15C15.5523 24 16 23.5523 16 23V21.3027L17.412 19.1848C17.8442 18.5364 17.9168 17.7113 17.6129 17H20V15H17V13C17 12.7347 16.8947 12.4805 16.7072 12.2928L13.7072 9.29285C13.3165 8.90247 12.6835 8.90247 12.2929 9.29285L9.29285 12.2928C9.10535 12.4805 9.00001 12.7347 9.00001 13V15H7.00001V7.86853L7.61329 8.27737C8.07281 8.5837 8.69365 8.45953 9 8.00002L9.00001 8C9.30635 7.54048 9.18218 6.91963 8.72266 6.61328L7.00001 5.46484V3.99998C7.00001 3.44771 6.5523 3 6.00003 3H5.99998C5.44771 3 5.00001 3.44771 5.00001 3.99998V5.46484L3.27735 6.61328C2.81783 6.91963 2.69366 7.54048 3.00001 8L3.00001 8C3.30635 8.45952 3.92721 8.58369 4.38673 8.27735L5.00001 7.8685V16C5.00001 16.5523 5.44772 17 6.00001 17H7.40656C7.12488 17.8221 7.32786 18.742 7.95508 19.3694L10 21.4142V23C10 23.5523 10.4477 24 11 24H12V27.172C10.7467 27.6166 9.87338 28.8714 10.0151 30.3038C10.1542 31.7102 11.2898 32.8458 12.6962 32.9849C14.1286 33.1266 15.3834 32.2534 15.828 31H21.172C21.4738 31.8509 22.1491 32.5262 23 32.828V35H19C18.4477 35 18 35.4477 18 36V38H17.0104C15.3527 38 14.0005 39.3409 14 40.9986C13.9993 43.4352 15.7512 45.4695 18.0612 45.9103C18.2735 47.5375 19.0462 48.9901 20.1795 50.0685C17.8117 50.4612 16 52.5226 16 55V61C16 61.5523 16.4477 62 17 62H47C47.5523 62 48 61.5523 48 61V55C48 52.5226 46.1884 50.4612 43.8205 50.0685C44.9538 48.9901 45.7265 47.5375 45.9388 45.9103C48.2489 45.4695 50.0007 43.4352 50 40.9986C49.9996 39.3409 48.6473 38 46.9896 38H46V36C46 35.4477 45.5523 35 45 35H41V32.828C41.8509 32.5262 42.5262 31.8509 42.828 31H48.172C48.6166 32.2534 49.8714 33.1266 51.3038 32.9849C52.7102 32.8458 53.8458 31.7102 53.9849 30.3038C54.1266 28.8714 53.2534 27.6166 52 27.172V24H53C53.5523 24 54 23.5523 54 23V21.4142L56.0449 19.3694C56.6721 18.7421 56.8751 17.8222 56.5934 17H59V15H56V13.8734ZM28.3694 17.9551C28.2781 17.8639 28.2555 17.7249 28.3132 17.6096C28.3591 17.5178 28.4327 17.4772 28.4865 17.4594C28.54 17.4414 28.6233 17.4294 28.7148 17.4756H28.7151L31.5529 18.8944C31.8739 19.0551 32.2562 19.031 32.5547 18.832L34.3246 17.6522C34.4241 17.5857 34.5222 17.5977 34.5721 17.6112C34.6218 17.6244 34.7133 17.6625 34.7668 17.7698C34.8157 17.8674 34.8084 17.9846 34.7478 18.0756L33.168 20.4453C33.0585 20.6096 33 20.8026 33 21V22H31V21C31 20.7347 30.8947 20.4805 30.7072 20.2928L28.3694 17.9551ZM32 29C32.5514 29 33 29.4486 33 30C33 30.5514 32.5514 31 32 31C31.4486 31 31 30.5514 31 30C31 29.4486 31.4486 29 32 29ZM11 13.4142L13 11.4142L15 13.4142V15H14V14H12V15H11V13.4142ZM9.36939 17.9551C9.27808 17.8639 9.2555 17.7249 9.31324 17.6096C9.35914 17.5178 9.43275 17.4772 9.48646 17.4594C9.54005 17.4414 9.6233 17.4294 9.71485 17.4756H9.71509L12.5529 18.8944C12.8739 19.0551 13.2562 19.031 13.5547 18.832L15.3246 17.6522C15.4241 17.5857 15.5222 17.5977 15.5721 17.6112C15.6218 17.6244 15.7133 17.6625 15.7669 17.7698C15.8157 17.8674 15.8084 17.9846 15.7478 18.0756L14.168 20.4453C14.0585 20.6096 14 20.8026 14 21V22H12V21C12 20.7347 11.8947 20.4805 11.7072 20.2928L9.36939 17.9551ZM24 29C24.5514 29 25 29.4486 25 30C25 30.5514 24.5514 31 24 31C23.4486 31 23 30.5514 23 30C23 29.4486 23.4486 29 24 29ZM13 31C12.4486 31 12 30.5514 12 30C12 29.4486 12.4486 29 13 29C13.5514 29 14 29.4486 14 30C14 30.5514 13.5514 31 13 31ZM43 41C43 43.2056 41.2056 45 39 45C36.7944 45 35 43.2056 35 41C35 38.7944 36.7944 37 39 37C41.2056 37 43 38.7944 43 41ZM31 40.125C31 39.5736 31.4486 39.125 32 39.125C32.5514 39.125 33 39.5736 33 40.125V42.125C33 42.6764 32.5514 43.125 32 43.125C31.4486 43.125 31 42.6764 31 42.125V40.125ZM32 37.125C31.272 37.125 30.6039 37.3859 30.0837 37.8188C29.9013 37.5283 29.6953 37.2543 29.4674 37H34.5326C34.3047 37.2543 34.0987 37.5283 33.9163 37.8188C33.3962 37.3859 32.728 37.125 32 37.125ZM25 37C27.2056 37 29 38.7944 29 41C29 43.2056 27.2056 45 25 45C22.7944 45 21 43.2056 21 41C21 38.7944 22.7944 37 25 37ZM20.5326 37C20.3391 37.2159 20.161 37.4459 20 37.6883V37H20.5326ZM16 41C16 40.4486 16.4486 40 17 40H18V43.828C16.8361 43.4152 16 42.3036 16 41ZM43 52C44.6569 52 46 53.3431 46 55V60H42V57C42 56.4477 41.5523 56 41 56C40.4477 56 40 56.4477 40 57V60H24V57C24 56.4477 23.5523 56 23 56H23C22.4477 56 22 56.4477 22 57V60H18V55C18 53.3431 19.3431 52 21 52H26.1006C26.5652 54.2794 28.5854 56 31 56H33C35.4146 56 37.4348 54.2794 37.8994 52H43ZM28.172 52H35.828C35.4152 53.1639 34.3036 54 33 54H31C29.6964 54 28.5848 53.1639 28.172 52ZM39 50H25C22.243 50 20 47.757 20 45V44.3117C21.0757 45.9304 22.915 47 25 47C27.0723 47 28.9023 45.9438 29.9808 44.3417C30.5142 44.828 31.223 45.125 32 45.125C32.777 45.125 33.4858 44.828 34.0192 44.3417C35.0977 45.9438 36.9277 47 39 47C41.0851 47 42.9243 45.9304 44 44.3117V45C44 47.757 41.757 50 39 50ZM47 40C47.5514 40 48 40.4486 48 41C48 42.3036 47.1639 43.4152 46 43.828V40H47ZM44 37.6883C43.839 37.4459 43.661 37.2159 43.4674 37H44V37.6883ZM40 31C39.4486 31 39 30.5514 39 30C39 29.4486 39.4486 29 40 29C40.5514 29 41 29.4486 41 30C41 30.5514 40.5514 31 40 31ZM51 31C50.4486 31 50 30.5514 50 30C50 29.4486 50.4486 29 51 29C51.5514 29 52 29.4486 52 30C52 30.5514 51.5514 31 51 31ZM54.6306 17.9551L52.2929 20.2928C52.1054 20.4805 52 20.7347 52 21V22H50V21C50 20.8026 49.9415 20.6096 49.832 20.4453L48.2523 18.0757C48.1917 17.9846 48.1843 17.8674 48.2332 17.7697C48.2867 17.6625 48.3782 17.6244 48.4279 17.6112C48.4775 17.5977 48.5758 17.5857 48.6755 17.6522L50.4453 18.832C50.7438 19.031 51.1261 19.0551 51.4471 18.8944L54.2849 17.4756H54.2852C54.3767 17.4296 54.46 17.4415 54.5136 17.4594C54.5673 17.4772 54.6409 17.5178 54.6868 17.6094C54.7445 17.7249 54.7219 17.8639 54.6306 17.9551ZM52 15V12.8734C52.0575 12.8586 52.1144 12.8421 52.1709 12.8248C52.6769 13.3341 53.3069 13.6965 54 13.8743V15H52ZM55 5C55.5514 5 56 5.44861 56 6C56 6.2572 55.9025 6.5022 55.7255 6.6897C55.5132 6.91443 55.4169 7.22473 55.4645 7.53015C55.512 7.83557 55.6981 8.10181 55.9686 8.25134C56.6049 8.60303 57 9.27307 57 10C57 11.1028 56.1028 12 55 12C54.6204 12 54.2582 11.8936 53.9476 11.7007C54.6007 10.9885 55 10.0401 55 9C55 8.30573 54.8194 7.6377 54.4926 7.05219C54.4468 6.91858 54.3735 6.79428 54.2741 6.68909C54.2543 6.66821 54.2356 6.64673 54.2174 6.62439L54.1809 6.57544C54.0625 6.40576 54 6.20703 54 6C54 5.44861 54.4486 5 55 5ZM51 4C51.5514 4 52 4.44861 52 5C52 5.25732 51.9025 5.5022 51.7256 5.68958C51.5133 5.91431 51.4169 6.22461 51.4644 6.53003C51.512 6.83545 51.6981 7.10181 51.9686 7.25134C52.6049 7.60303 53 8.27307 53 9C53 10.1028 52.1028 11 51 11C49.8972 11 49 10.1028 49 9C49 8.27307 49.3951 7.60303 50.0314 7.25134C50.3019 7.10181 50.488 6.83545 50.5356 6.53003C50.5831 6.22461 50.4867 5.91431 50.2744 5.68958C50.0975 5.5022 50 5.25732 50 5C50 4.44861 50.4486 4 51 4ZM45 10C45 9.27307 45.3951 8.60303 46.0314 8.25134C46.3019 8.10181 46.488 7.83557 46.5355 7.53015C46.5831 7.22473 46.4868 6.91443 46.2745 6.6897C46.0975 6.5022 46 6.2572 46 6C46 5.44861 46.4486 5 47 5C47.5514 5 48 5.44861 48 6C48 6.20703 47.9375 6.40576 47.8191 6.57544L47.7826 6.62439C47.7644 6.64673 47.7457 6.66821 47.726 6.68909C47.6265 6.79428 47.5532 6.91858 47.5074 7.05219C47.1806 7.6377 47 8.30573 47 9C47 10.0401 47.3993 10.9885 48.0524 11.7007C47.7418 11.8936 47.3796 12 47 12C45.8972 12 45 11.1028 45 10ZM48 13.8743C48.6931 13.6965 49.3231 13.3341 49.8291 12.8248C49.8856 12.8421 49.9425 12.8586 50 12.8734V15H48V13.8743Z" fill="#D15B8F"/>
</svg>
