<svg width="64" height="64" viewBox="0 0 64 64" fill="none" xmlns="http://www.w3.org/2000/svg">
<path d="M62 42.9994V35.875C62 35.6043 61.8903 35.3452 61.6958 35.1567L57.6958 31.2817C57.5093 31.1011 57.2598 31 57 31H56V21C56 20.4477 55.5522 20 55 20H9C8.44775 20 8 20.4477 8 21V33H7C6.73474 33 6.48047 33.1053 6.29285 33.2929L2.29285 37.2929C2.10535 37.4804 2 37.7348 2 38V55V61C2 61.5523 2.44775 62 3 62H15C15.5522 62 16 61.5523 16 61V55V50H48V55V61C48 61.5523 48.4478 62 49 62H61C61.5522 62 62 61.5523 62 61V55V43.0006C62 43.0002 62 42.9998 62 42.9994ZM60 36.2985V40.5858L52.4142 33H55H56.5951L60 36.2985ZM55.7072 48.2929L50.2072 42.7929C49.9951 42.5809 49.8784 42.2994 49.8784 42C49.8784 41.7006 49.9951 41.4191 50.207 41.2072C50.4188 40.9954 50.7004 40.8787 51 40.8787C51.2993 40.8787 51.5806 40.9952 51.7923 41.2066L57.2928 46.7071C57.4882 46.9023 57.744 47 58 47C58.256 47 58.5118 46.9023 58.7072 46.7071L60 45.4142V54H56V49C56 48.7348 55.8947 48.4804 55.7072 48.2929ZM43 29.5858V28H44.5858L59.5858 43L58 44.5858L43 29.5858ZM10 22H54V31H50.4142L45.7072 26.2929C45.5195 26.1053 45.2653 26 45 26H42C41.4478 26 41 26.4477 41 27V30C41 30.2652 41.1053 30.5196 41.2928 30.7071L49.7326 39.1468C49.3869 39.3005 49.0685 39.5174 48.7928 39.7929C48.2032 40.3826 47.8784 41.1664 47.8784 42C47.8784 42.8336 48.2032 43.6174 48.7928 44.2071L52.5858 48H11.4142L15.2072 44.2071C16.4241 42.9901 16.4241 41.0099 15.2072 39.7929C14.6177 39.2034 13.8337 38.8787 13 38.8787C12.1663 38.8787 11.3823 39.2034 10.7928 39.7929L10 40.5858V34V22ZM4 38.4142L7.41418 35H8V43C8 43.4045 8.24365 43.7691 8.61731 43.9239C8.99121 44.0788 9.42102 43.993 9.70715 43.7071L12.2072 41.2071C12.4189 40.9953 12.7004 40.8787 13 40.8787C13.2996 40.8787 13.5811 40.9953 13.7928 41.2071C14.2301 41.6443 14.2301 42.3557 13.7928 42.7929L8.29285 48.2929C8.10535 48.4804 8 48.7348 8 49V54H4V38.4142ZM4 60V56H9H14V60H4ZM14 54H10V50H14V54ZM54 50V54H50V50H54ZM50 60V56H55H60V60H50Z" fill="#D15B8F"/>
<path d="M17 36H24V44H18V46H25H45C45.5522 46 46 45.5523 46 45V41H44V44H42V37C42 36.7348 41.8947 36.4804 41.7072 36.2929L35.7072 30.2929C35.3165 29.9024 34.6835 29.9024 34.2928 30.2929L28.2928 36.2929C28.1053 36.4804 28 36.7348 28 37V44H26V35.4142L35 26.4142L37.2928 28.7071L38.7072 27.2929L35.7072 24.2929C35.5118 24.0977 35.2559 24 35 24V24H26C25.7347 24 25.4805 24.1053 25.2928 24.2929L15.2928 34.2929C15.1016 34.4841 15.0025 34.7399 15.0024 35H15V38H17V36ZM30 37.4142L35 32.4142L40 37.4142V44H30V37.4142ZM26.4142 26H32.5858L24.5858 34H18.4142L26.4142 26Z" fill="#D15B8F"/>
<path d="M29 12.6447V13V15C29 16.6542 30.3458 18 32 18C33.6542 18 35 16.6542 35 15V13V12.6447C35.6401 11.9185 36 10.9778 36 10C36 7.79437 34.2056 6 32 6C29.7944 6 28 7.79437 28 10C28 10.9778 28.3599 11.9185 29 12.6447ZM33 15C33 15.5514 32.5514 16 32 16C31.4486 16 31 15.5514 31 15V14H33V15ZM32 8C33.1028 8 34 8.89722 34 10C34 10.5679 33.7571 11.1108 33.3335 11.4894C33.1809 11.6259 33.0753 11.8046 33.028 12H30.972C30.9247 11.8046 30.8191 11.6259 30.6665 11.4894C30.2429 11.1108 30 10.5679 30 10C30 8.89722 30.8972 8 32 8Z" fill="#D15B8F"/>
<path d="M32 5C32.5522 5 33 4.55231 33 4V2C33 1.44769 32.5522 1 32 1C31.4478 1 31 1.44769 31 2V4C31 4.55231 31.4478 5 32 5Z" fill="#D15B8F"/>
<path d="M27.0502 6.46447C27.2455 6.65978 27.5014 6.75738 27.7573 6.75738C28.0132 6.75738 28.2692 6.65972 28.4644 6.46447C28.855 6.07397 28.855 5.44085 28.4645 5.05029L27.0503 3.63604C26.6598 3.24554 26.0266 3.24548 25.6361 3.63604C25.2455 4.02654 25.2455 4.65972 25.636 5.05022L27.0502 6.46447Z" fill="#D15B8F"/>
<path d="M24 11H26C26.5522 11 27 10.5523 27 10C27 9.44769 26.5522 9 26 9H24C23.4478 9 23 9.44769 23 10C23 10.5523 23.4478 11 24 11Z" fill="#D15B8F"/>
<path d="M36.2427 6.7574C36.4987 6.7574 36.7545 6.65974 36.9498 6.46449L38.364 5.05025C38.7545 4.65974 38.7545 4.02657 38.3639 3.63606C37.9735 3.24544 37.3403 3.24556 36.9497 3.63606L35.5355 5.05031C35.145 5.44087 35.145 6.07399 35.5357 6.46449C35.7309 6.65981 35.9867 6.7574 36.2427 6.7574Z" fill="#D15B8F"/>
<path d="M37 10C37 10.5523 37.4478 11 38 11H40C40.5522 11 41 10.5523 41 10C41 9.44769 40.5522 9 40 9H38C37.4478 9 37 9.44769 37 10Z" fill="#D15B8F"/>
</svg>
