<svg width="64" height="64" viewBox="0 0 64 64" fill="none" xmlns="http://www.w3.org/2000/svg">
<path d="M59 2H5C3.34583 2 2 3.34583 2 5V43V47C2 48.6542 3.34583 50 5 50H25.9132L25.0799 60H24V62H26H38H40V60H38.9201L38.0868 50H59C60.6542 50 62 48.6542 62 47V43V5C62 3.34583 60.6542 2 59 2ZM4 5C4 4.44861 4.44861 4 5 4H59C59.5514 4 60 4.44861 60 5V42H4V5ZM36.9132 60H27.0868L27.9201 50H36.0799L36.9132 60ZM60 47C60 47.5514 59.5514 48 59 48H5C4.44861 48 4 47.5514 4 47V44H60V47Z" fill="#D15B8F"/>
<path d="M32 58C33.6542 58 35 56.6542 35 55C35 53.3458 33.6542 52 32 52C30.3458 52 29 53.3458 29 55C29 56.6542 30.3458 58 32 58ZM32 54C32.5514 54 33 54.4486 33 55C33 55.5514 32.5514 56 32 56C31.4486 56 31 55.5514 31 55C31 54.4486 31.4486 54 32 54Z" fill="#D15B8F"/>
<path d="M26 33H24V36H10V24H14V22H10V10H24V22H20V24H24V27H26V10H38V14H40V10H54V22H40V21H38V27H40V24H54V25H56V9C56 8.44769 55.5523 8 55 8H9C8.44769 8 8 8.44769 8 9V37C8 37.5523 8.44769 38 9 38H42V36H26V33Z" fill="#D15B8F"/>
<path d="M54.4142 31L55.7071 29.7071C55.9931 29.4211 56.0787 28.991 55.9239 28.6173C55.7691 28.2437 55.4045 28 55 28H47C46.4477 28 46 28.4477 46 29V37C46 37.4045 46.2437 37.7691 46.6173 37.9239C46.9911 38.0789 47.4211 37.993 47.7071 37.7071L49 36.4142L52.2929 39.7071C52.4882 39.9023 52.7441 40 53 40C53.2559 40 53.5118 39.9023 53.7071 39.7071L57.7071 35.7071C58.0977 35.3166 58.0977 34.6834 57.7071 34.2929L54.4142 31ZM53 37.5858L49.7071 34.2929C49.5118 34.0977 49.2559 34 49 34C48.7441 34 48.4882 34.0977 48.2929 34.2929L48 34.5858V30H52.5858L52.2929 30.2929C51.9023 30.6834 51.9023 31.3166 52.2929 31.7071L55.5858 35L53 37.5858Z" fill="#D15B8F"/>
</svg>
