<svg width="64" height="64" viewBox="0 0 64 64" fill="none" xmlns="http://www.w3.org/2000/svg">
<path d="M61.4878 2.12708C61.1715 1.95032 60.7845 1.95826 60.4758 2.14844L57 4.28782V3.00001C57 2.44776 56.5522 2.00001 56 2.00001H42C41.7347 2.00001 41.4805 2.10535 41.2928 2.29285L35.2928 8.29285C35.1053 8.48047 35 8.73475 35 9V10H16.283L3.52405 2.14832C3.21545 1.95838 2.82825 1.95032 2.51221 2.12708C2.19592 2.30372 2 2.6377 2 3.00001V47C2 47.5522 2.44775 48 3 48H22V53C22 53.2653 22.1053 53.5195 22.2928 53.7071L30.2928 61.7071C30.4805 61.8946 30.7347 62 31 62H45C45.5522 62 46 61.5522 46 61V53C46 52.4477 45.5522 52 45 52H41.4142L37.4143 48H61C61.5522 48 62 47.5522 62 47V3.00001C62 2.6377 61.8041 2.30372 61.4878 2.12708ZM60 4.7898V42H49V15.4142L51.4142 13H56C56.5522 13 57 12.5522 57 12V6.63624L60 4.7898ZM37 9.41419L42.4142 4.00001H55V11H51C50.7347 11 50.4805 11.1054 50.2928 11.2929L46 15.5858L44.4142 14L46.7072 11.7072C47.0977 11.3165 47.0977 10.6835 46.7072 10.2929L43.7072 7.29285C43.3165 6.90247 42.6835 6.90247 42.2928 7.29285L39.2928 10.2929C39.1053 10.4805 39 10.7347 39 11V14H37V9.41419ZM39 34H35V30H39V34ZM29 34H27V30H29V34ZM27 28H21V26H27V28ZM23 30H25V38H23V30ZM41 12H43.5858L42.2928 13.2928C42.0976 13.4882 42 13.7441 42 14H41V12ZM42.4142 10L43 9.41419L43.5858 10H42.4142ZM29 28V26H43V28H29ZM43 24H41V19V16H43V24ZM39 18H35V16H36H39V18ZM39 20V24H35V20H39ZM33 24H31V16H33V24ZM31 30H33V38H31V30ZM41 30H43V38H41V30ZM35 14H30C29.4478 14 29 14.4478 29 15V24H20C19.4478 24 19 24.4478 19 25V29C19 29.5522 19.4478 30 20 30H21V39C21 39.5522 21.4478 40 22 40H26C26.5522 40 27 39.5522 27 39V36H29V39C29 39.5522 29.4478 40 30 40H34C34.5522 40 35 39.5522 35 39V36H39V39C39 39.5522 39.4478 40 40 40H44C44.5522 40 45 39.5522 45 39V17.4143L45.2928 17.7072C45.4882 17.9023 45.744 18 46 18C46.256 18 46.5118 17.9023 46.7072 17.7072L47 17.4143V42H17V12H35V14ZM4 4.78956L15 11.5588V42H4V4.78956ZM41 54H44V60H31.4142L24 52.5858V48H26V51C26 51.2653 26.1053 51.5195 26.2928 51.7071L31.2928 56.7071C31.6835 57.0975 32.3165 57.0975 32.7072 56.7071L35.7072 53.7071C36.0977 53.3165 36.0977 52.6835 35.7072 52.2928L33.4142 50L35 48.4142L40.2928 53.7071C40.4805 53.8946 40.7347 54 41 54ZM31.2928 50.7071L33.5858 53L32 54.5858L28 50.5858V48H32.5857L31.2928 49.2928C30.9023 49.6835 30.9023 50.3165 31.2928 50.7071ZM60 46H4V44H60V46Z" fill="#D15B8F"/>
</svg>
