<svg width="24" height="24" viewBox="0 0 24 24" fill="none" xmlns="http://www.w3.org/2000/svg">
<path d="M23.7886 4.76807L16.5099 11.9999L23.7886 19.2317C23.9202 18.9567 24 18.6527 24 18.328V5.67177C24 5.34707 23.9202 5.04308 23.7886 4.76807Z" fill="white"/>
<path d="M21.8906 3.5625H2.10939C1.78469 3.5625 1.4807 3.64233 1.20569 3.77391L10.5086 13.03C11.3312 13.8525 12.6688 13.8525 13.4914 13.03L22.7943 3.77391C22.5193 3.64233 22.2153 3.5625 21.8906 3.5625Z" fill="white"/>
<path d="M0.211406 4.76807C0.0798281 5.04308 0 5.34707 0 5.67177V18.328C0 18.6527 0.0798281 18.9568 0.211406 19.2317L7.49011 11.9999L0.211406 4.76807Z" fill="white"/>
<path d="M15.5156 12.9941L14.4857 14.0241C13.1151 15.3947 10.8849 15.3947 9.51433 14.0241L8.48439 12.9941L1.20569 20.226C1.4807 20.3575 1.78469 20.4374 2.10939 20.4374H21.8906C22.2153 20.4374 22.5193 20.3575 22.7943 20.226L15.5156 12.9941Z" fill="white"/>
</svg>
