<svg width="24" height="24" viewBox="0 0 24 24" fill="none" xmlns="http://www.w3.org/2000/svg">
<path d="M23.7886 4.76804L16.5099 11.9999L23.7886 19.2317C23.9202 18.9567 24 18.6526 24 18.328V5.67174C24 5.34704 23.9202 5.04305 23.7886 4.76804Z" fill="#D15B8F"/>
<path d="M21.8906 3.56247H2.10939C1.78469 3.56247 1.4807 3.6423 1.20569 3.77388L10.5086 13.03C11.3312 13.8525 12.6688 13.8525 13.4914 13.03L22.7943 3.77388C22.5193 3.6423 22.2153 3.56247 21.8906 3.56247Z" fill="#D15B8F"/>
<path d="M0.211406 4.76804C0.0798281 5.04305 0 5.34704 0 5.67174V18.328C0 18.6527 0.0798281 18.9567 0.211406 19.2317L7.49011 11.9999L0.211406 4.76804Z" fill="#D15B8F"/>
<path d="M15.5156 12.9942L14.4857 14.0242C13.1151 15.3948 10.8849 15.3948 9.51433 14.0242L8.48439 12.9942L1.20569 20.226C1.4807 20.3576 1.78469 20.4374 2.10939 20.4374H21.8906C22.2153 20.4374 22.5193 20.3576 22.7943 20.226L15.5156 12.9942Z" fill="#D15B8F"/>
</svg>
