<svg width="64" height="64" viewBox="0 0 64 64" fill="none" xmlns="http://www.w3.org/2000/svg">
<path d="M55.3827 38.0761C55.009 37.9213 54.5789 38.007 54.2929 38.2929L38.2929 54.2929C38.0069 54.5789 37.9213 55.0091 38.0761 55.3827C38.2309 55.7564 38.5955 56 39 56H55C55.5523 56 56 55.5523 56 55V39C56 38.5955 55.7564 38.2309 55.3827 38.0761ZM54 54H41.4142L54 41.4142V54Z" fill="#D15B8F"/>
<path d="M41.7071 21.2929L32.7071 12.2929C32.3166 11.9024 31.6834 11.9024 31.2929 12.2929L22.2929 21.2929C22.1053 21.4804 22 21.7348 22 22V33C22 33.5523 22.4477 34 23 34H41C41.5523 34 42 33.5523 42 33V22C42 21.7348 41.8947 21.4804 41.7071 21.2929ZM40 32H24V22.4142L32 14.4142L40 22.4142V32Z" fill="#D15B8F"/>
<path d="M28 23V29C28 29.5523 28.4477 30 29 30H35C35.5523 30 36 29.5523 36 29V23C36 22.4477 35.5523 22 35 22H29C28.4477 22 28 22.4477 28 23ZM30 24H34V28H30V24Z" fill="#D15B8F"/>
<path d="M61 8H10V3C10 2.44769 9.55231 2 9 2H6C3.79437 2 2 3.79437 2 6V38C2 39.0666 2.41577 40.0708 3.17242 40.8292C3.9292 41.5842 4.93341 42 6 42H40.5858L22.2929 60.2929C22.0069 60.5789 21.9213 61.009 22.0761 61.3827C22.2309 61.7563 22.5955 62 23 62H61C61.5523 62 62 61.5523 62 61V41V23V9C62 8.44769 61.5523 8 61 8ZM6 4H8V34H6C5.27168 34 4.58884 34.1966 4 34.5381V6C4 4.89722 4.89722 4 6 4ZM4.58667 39.415C4.20837 39.0358 4 38.5333 4 38C4 36.8972 4.89722 36 6 36H9C9.55231 36 10 35.5523 10 35V10H60V22.5858L42.5858 40H6C5.46674 40 4.96423 39.7916 4.58667 39.415ZM60 60H25.4142L30 55.4142L31.2929 56.7071C31.4882 56.9023 31.7441 57 32 57C32.2559 57 32.5118 56.9023 32.7071 56.7071C33.0977 56.3166 33.0977 55.6834 32.7071 55.2929L31.4142 54L33 52.4142L33.2929 52.7071C33.4882 52.9023 33.7441 53 34 53C34.2559 53 34.5118 52.9023 34.7071 52.7071C35.0977 52.3166 35.0977 51.6834 34.7071 51.2929L34.4142 51L36 49.4142L37.2929 50.7071C37.4882 50.9023 37.7441 51 38 51C38.2559 51 38.5118 50.9023 38.7071 50.7071C39.0977 50.3166 39.0977 49.6834 38.7071 49.2929L37.4142 48L39 46.4142L39.2929 46.7071C39.4882 46.9023 39.7441 47 40 47C40.2559 47 40.5118 46.9023 40.7071 46.7071C41.0977 46.3166 41.0977 45.6834 40.7071 45.2929L40.4142 45L42 43.4142L43.2929 44.7071C43.4882 44.9023 43.7441 45 44 45C44.2559 45 44.5118 44.9023 44.7071 44.7071C45.0977 44.3166 45.0977 43.6834 44.7071 43.2929L43.4142 42L45 40.4142L45.2929 40.7071C45.4882 40.9023 45.7441 41 46 41C46.2559 41 46.5118 40.9023 46.7071 40.7071C47.0977 40.3166 47.0977 39.6834 46.7071 39.2929L46.4142 39L48 37.4142L49.2929 38.7071C49.4882 38.9023 49.7441 39 50 39C50.2559 39 50.5118 38.9023 50.7071 38.7071C51.0977 38.3166 51.0977 37.6834 50.7071 37.2929L49.4142 36L51 34.4142L51.2929 34.7071C51.4882 34.9023 51.7441 35 52 35C52.2559 35 52.5118 34.9023 52.7071 34.7071C53.0977 34.3166 53.0977 33.6834 52.7071 33.2929L52.4142 33L54 31.4142L55.2929 32.7071C55.4882 32.9023 55.7441 33 56 33C56.2559 33 56.5118 32.9023 56.7071 32.7071C57.0977 32.3166 57.0977 31.6834 56.7071 31.2929L55.4142 30L60 25.4142V41V60Z" fill="#D15B8F"/>
</svg>
