<svg width="24" height="24" viewBox="0 0 24 24" fill="none" xmlns="http://www.w3.org/2000/svg">
<g clip-path="url(#clip0)">
<path d="M12 11.7376C14.6684 11.7376 16.8317 9.11006 16.8317 5.86882C16.8317 2.62752 16.1214 0 12 0C7.87849 0 7.16809 2.62752 7.16809 5.86882C7.16809 9.11006 9.33145 11.7376 12 11.7376Z" fill="#E1A6AD"/>
<path d="M2.87375 20.6982C2.87293 20.5006 2.87211 20.6426 2.87375 20.6982V20.6982Z" fill="#E1A6AD"/>
<path d="M21.1258 20.8529C21.1284 20.7988 21.1267 20.4775 21.1258 20.8529V20.8529Z" fill="#E1A6AD"/>
<path d="M21.1156 20.4616C21.0261 14.8153 20.2887 13.2064 14.6457 12.188C14.6457 12.188 13.8514 13.2002 12 13.2002C10.1485 13.2002 9.35406 12.188 9.35406 12.188C3.77269 13.1953 2.99043 14.7803 2.88757 20.2782C2.87914 20.7271 2.87523 20.7507 2.87372 20.6986C2.87406 20.7962 2.87447 20.9769 2.87447 21.2918C2.87447 21.2918 4.21792 24.0001 12 24.0001C19.7819 24.0001 21.1254 21.2918 21.1254 21.2918C21.1254 21.0894 21.1256 20.9487 21.1258 20.853C21.1243 20.8852 21.1213 20.8228 21.1156 20.4616Z" fill="#E1A6AD"/>
</g>
<defs>
<clipPath id="clip0">
<rect width="24" height="24" fill="white"/>
</clipPath>
</defs>
</svg>
